<?xml version="1.0" encoding="UTF-8"?>
<!DOCTYPE svg PUBLIC "-//W3C//DTD SVG 1.1//EN" "http://www.w3.org/Graphics/SVG/1.1/DTD/svg11.dtd">
<svg version="1.1" xmlns="http://www.w3.org/2000/svg" xmlns:xlink="http://www.w3.org/1999/xlink" x="0" y="0" width="347" height="290" viewBox="0, 0, 347, 290">
  <g id="Layer_1" transform="translate(-49, -53)">
    <text transform="matrix(1, 0, -0, 1, 85.5, 72.5)">
      <tspan x="-7.5" y="9.5" font-family="TimesNewRomanPS-BoldMT" font-size="30" kerning="0" fill="#000000">a</tspan>
    </text>
    <text transform="matrix(1, 0, -0, 1, 154.658, 72.5)">
      <tspan x="-6.658" y="9.5" font-family="TimesNewRomanPSMT" font-size="30" kerning="0" fill="#000000">c</tspan>
    </text>
    <text transform="matrix(1, 0, -0, 1, 223.5, 72.5)">
      <tspan x="-7.5" y="9.5" font-family="TimesNewRomanPSMT" font-size="30" kerning="0" fill="#000000">d</tspan>
    </text>
    <text transform="matrix(1, 0, -0, 1, 291.995, 72.5)">
      <tspan x="-4.995" y="9.5" font-family="TimesNewRomanPSMT" font-size="30" kerning="0" fill="#000000">f</tspan>
    </text>
    <text transform="matrix(1, 0, -0, 1, 85.342, 108.5)">
      <tspan x="-8.342" y="9.5" font-family="TimesNewRomanPS-BoldMT" font-size="30" kerning="0" fill="#000000">b</tspan>
    </text>
    <text transform="matrix(1, 0, -0, 1, 154.5, 108.5)">
      <tspan x="-7.5" y="9.5" font-family="TimesNewRomanPSMT" font-size="30" kerning="0" fill="#000000">d</tspan>
    </text>
    <text transform="matrix(1, 0, -0, 1, 223.658, 108.5)">
      <tspan x="-6.658" y="9.5" font-family="TimesNewRomanPSMT" font-size="30" kerning="0" fill="#000000">e</tspan>
    </text>
    <text transform="matrix(1, 0, -0, 1, 85.658, 144.5)">
      <tspan x="-6.658" y="9.5" font-family="TimesNewRomanPS-BoldMT" font-size="30" kerning="0" fill="#000000">c</tspan>
    </text>
    <text transform="matrix(1, 0, -0, 1, 154.658, 144.5)">
      <tspan x="-6.658" y="9.5" font-family="TimesNewRomanPSMT" font-size="30" kerning="0" fill="#000000">a</tspan>
    </text>
    <text transform="matrix(1, 0, -0, 1, 222.995, 144.5)">
      <tspan x="-4.995" y="9.5" font-family="TimesNewRomanPSMT" font-size="30" kerning="0" fill="#000000">f</tspan>
    </text>
    <text transform="matrix(1, 0, -0, 1, 85.342, 180.5)">
      <tspan x="-8.342" y="9.5" font-family="TimesNewRomanPS-BoldMT" font-size="30" kerning="0" fill="#000000">d</tspan>
    </text>
    <text transform="matrix(1, 0, -0, 1, 154.658, 180.5)">
      <tspan x="-6.658" y="9.5" font-family="TimesNewRomanPSMT" font-size="30" kerning="0" fill="#000000">a</tspan>
    </text>
    <text transform="matrix(1, 0, -0, 1, 223.5, 180.5)">
      <tspan x="-7.5" y="9.5" font-family="TimesNewRomanPSMT" font-size="30" kerning="0" fill="#000000">b</tspan>
    </text>
    <text transform="matrix(1, 0, -0, 1, 292.658, 180.5)">
      <tspan x="-6.658" y="9.5" font-family="TimesNewRomanPSMT" font-size="30" kerning="0" fill="#000000">e</tspan>
    </text>
    <text transform="matrix(1, 0, -0, 1, 360.995, 180.5)">
      <tspan x="-4.995" y="9.5" font-family="TimesNewRomanPSMT" font-size="30" kerning="0" fill="#000000">f</tspan>
    </text>
    <text transform="matrix(1, 0, -0, 1, 85.658, 216.5)">
      <tspan x="-6.658" y="9.5" font-family="TimesNewRomanPS-BoldMT" font-size="30" kerning="0" fill="#000000">e</tspan>
    </text>
    <text transform="matrix(1, 0, -0, 1, 154.5, 216.5)">
      <tspan x="-7.5" y="9.5" font-family="TimesNewRomanPSMT" font-size="30" kerning="0" fill="#000000">b</tspan>
    </text>
    <text transform="matrix(1, 0, -0, 1, 223.5, 216.5)">
      <tspan x="-7.5" y="9.5" font-family="TimesNewRomanPSMT" font-size="30" kerning="0" fill="#000000">d</tspan>
    </text>
    <text transform="matrix(1, 0, -0, 1, 84.995, 252.5)">
      <tspan x="-4.995" y="9.5" font-family="TimesNewRomanPS-BoldMT" font-size="30" kerning="0" fill="#000000">f</tspan>
    </text>
    <text transform="matrix(1, 0, -0, 1, 154.658, 252.5)">
      <tspan x="-6.658" y="9.5" font-family="TimesNewRomanPSMT" font-size="30" kerning="0" fill="#000000">a</tspan>
    </text>
    <text transform="matrix(1, 0, -0, 1, 223.658, 252.5)">
      <tspan x="-6.658" y="9.5" font-family="TimesNewRomanPSMT" font-size="30" kerning="0" fill="#000000">c</tspan>
    </text>
    <text transform="matrix(1, 0, -0, 1, 292.5, 252.5)">
      <tspan x="-7.5" y="9.5" font-family="TimesNewRomanPSMT" font-size="30" kerning="0" fill="#000000">d</tspan>
    </text>
    <text transform="matrix(1, 0, -0, 1, 85.5, 288.5)">
      <tspan x="-7.5" y="9.5" font-family="TimesNewRomanPS-BoldMT" font-size="30" kerning="0" fill="#000000">g</tspan>
    </text>
    <text transform="matrix(1, 0, -0, 1, 223.495, 325.5)">
      <tspan x="-17.495" y="9.5" font-family="TimesNewRomanPSMT" font-size="30" kerning="0.009" fill="#000000">(</tspan>
      <tspan x="-7.496" y="9.5" font-family="TimesNewRomanPSMT" font-size="30" fill="#000000">b</tspan>
      <tspan x="7.504" y="9.5" font-family="TimesNewRomanPSMT" font-size="30" kerning="0" fill="#000000">)</tspan>
    </text>
    <path d="M49,53 L51,53 L51,308 L49,308 z" fill="#000000"/>
    <path d="M119,55 L120,55 L120,306 L119,306 z" fill="#000000"/>
    <path d="M394,55 L396,55 L396,308 L394,308 z" fill="#000000"/>
    <path d="M51,53 L396,53 L396,55 L51,55 z" fill="#000000"/>
    <path d="M51,306 L396,306 L396,308 L51,308 z" fill="#000000"/>
  </g>
</svg>
