<?xml version="1.0" encoding="UTF-8"?>
<!DOCTYPE svg PUBLIC "-//W3C//DTD SVG 1.1//EN" "http://www.w3.org/Graphics/SVG/1.1/DTD/svg11.dtd">
<svg version="1.1" xmlns="http://www.w3.org/2000/svg" xmlns:xlink="http://www.w3.org/1999/xlink" x="0" y="0" width="605" height="305" viewBox="0, 0, 605, 305">
  <defs>
    <clipPath id="Clip_1">
      <path d="M19,360 L623,360 L623,327 L19,327 z"/>
    </clipPath>
  </defs>
  <g id="Layer_1" transform="translate(-19, -55)">
    <text transform="matrix(1, 0, -0, 1, 122.158, 72.5)">
      <tspan x="-14.158" y="9.5" font-family="TimesNewRomanPS-BoldMT" font-size="30" fill="#000000">a</tspan>
      <tspan x="0.842" y="9.5" font-family="TimesNewRomanPS-BoldMT" font-size="30" kerning="0" fill="#000000">c</tspan>
    </text>
    <text transform="matrix(1, 0, -0, 1, 190.842, 72.5)">
      <tspan x="-15.842" y="9.5" font-family="TimesNewRomanPS-BoldMT" font-size="30" fill="#000000">a</tspan>
      <tspan x="-0.842" y="9.5" font-family="TimesNewRomanPS-BoldMT" font-size="30" kerning="0" fill="#000000">d</tspan>
    </text>
    <text transform="matrix(1, 0, -0, 1, 260.495, 72.5)">
      <tspan x="-12.495" y="9.5" font-family="TimesNewRomanPS-BoldMT" font-size="30" fill="#000000">a</tspan>
      <tspan x="2.505" y="9.5" font-family="TimesNewRomanPS-BoldMT" font-size="30" kerning="0" fill="#000000">f</tspan>
    </text>
    <text transform="matrix(1, 0, -0, 1, 328.845, 72.5)">
      <tspan x="-16.845" y="9.5" font-family="TimesNewRomanPS-BoldMT" font-size="30" kerning="0.321" fill="#000000">b</tspan>
      <tspan x="0.161" y="9.5" font-family="TimesNewRomanPS-BoldMT" font-size="30" kerning="0" fill="#000000">d</tspan>
    </text>
    <text transform="matrix(1, 0, -0, 1, 396.16, 72.5)">
      <tspan x="-15.16" y="9.5" font-family="TimesNewRomanPS-BoldMT" font-size="30" kerning="0.321" fill="#000000">b</tspan>
      <tspan x="1.845" y="9.5" font-family="TimesNewRomanPS-BoldMT" font-size="30" kerning="0" fill="#000000">e</tspan>
    </text>
    <text transform="matrix(1, 0, -0, 1, 461.492, 72.5)">
      <tspan x="-11.492" y="9.5" font-family="TimesNewRomanPS-BoldMT" font-size="30" kerning="-0.321" fill="#000000">c</tspan>
      <tspan x="1.502" y="9.5" font-family="TimesNewRomanPS-BoldMT" font-size="30" kerning="0" fill="#000000">f</tspan>
    </text>
    <text transform="matrix(1, 0, -0, 1, 526.161, 72.5)">
      <tspan x="-15.16" y="9.5" font-family="TimesNewRomanPS-BoldMT" font-size="30" kerning="0.321" fill="#000000">d</tspan>
      <tspan x="1.845" y="9.5" font-family="TimesNewRomanPS-BoldMT" font-size="30" kerning="0" fill="#000000">e</tspan>
    </text>
    <text transform="matrix(1, 0, -0, 1, 576.498, 72.5)">
      <tspan x="-13.498" y="9.5" font-family="TimesNewRomanPS-BoldMT" font-size="30" kerning="0.321" fill="#000000">d</tspan>
      <tspan x="3.508" y="9.5" font-family="TimesNewRomanPS-BoldMT" font-size="30" kerning="0" fill="#000000">f</tspan>
    </text>
    <text transform="matrix(1, 0, -0, 1, 53.5, 106.5)">
      <tspan x="-7.5" y="9.5" font-family="TimesNewRomanPS-BoldMT" font-size="30" kerning="0" fill="#000000">a</tspan>
    </text>
    <text transform="matrix(1, 0, -0, 1, 122.5, 106.5)">
      <tspan x="-7.5" y="9.5" font-family="TimesNewRomanPSMT" font-size="30" kerning="0" fill="#000000">1</tspan>
    </text>
    <text transform="matrix(1, 0, -0, 1, 191.5, 106.5)">
      <tspan x="-7.5" y="9.5" font-family="TimesNewRomanPSMT" font-size="30" kerning="0" fill="#000000">1</tspan>
    </text>
    <text transform="matrix(1, 0, -0, 1, 260.5, 106.5)">
      <tspan x="-7.5" y="9.5" font-family="TimesNewRomanPSMT" font-size="30" kerning="0" fill="#000000">1</tspan>
    </text>
    <text transform="matrix(1, 0, -0, 1, 329.5, 106.5)">
      <tspan x="-7.5" y="9.5" font-family="TimesNewRomanPSMT" font-size="30" kerning="0" fill="#000000">0</tspan>
    </text>
    <text transform="matrix(1, 0, -0, 1, 396.5, 106.5)">
      <tspan x="-7.5" y="9.5" font-family="TimesNewRomanPSMT" font-size="30" kerning="0" fill="#000000">0</tspan>
    </text>
    <text transform="matrix(1, 0, -0, 1, 461.5, 106.5)">
      <tspan x="-7.5" y="9.5" font-family="TimesNewRomanPSMT" font-size="30" kerning="0" fill="#000000">0</tspan>
    </text>
    <text transform="matrix(1, 0, -0, 1, 526.5, 106.5)">
      <tspan x="-7.5" y="9.5" font-family="TimesNewRomanPSMT" font-size="30" kerning="0" fill="#000000">0</tspan>
    </text>
    <text transform="matrix(1, 0, -0, 1, 591.5, 106.5)">
      <tspan x="-7.5" y="9.5" font-family="TimesNewRomanPSMT" font-size="30" kerning="0" fill="#000000">0</tspan>
    </text>
    <text transform="matrix(1, 0, -0, 1, 53.342, 140.5)">
      <tspan x="-8.342" y="9.5" font-family="TimesNewRomanPS-BoldMT" font-size="30" kerning="0" fill="#000000">b</tspan>
    </text>
    <text transform="matrix(1, 0, -0, 1, 122.5, 140.5)">
      <tspan x="-7.5" y="9.5" font-family="TimesNewRomanPSMT" font-size="30" kerning="0" fill="#000000">0</tspan>
    </text>
    <text transform="matrix(1, 0, -0, 1, 191.5, 140.5)">
      <tspan x="-7.5" y="9.5" font-family="TimesNewRomanPSMT" font-size="30" kerning="0" fill="#000000">0</tspan>
    </text>
    <text transform="matrix(1, 0, -0, 1, 260.5, 140.5)">
      <tspan x="-7.5" y="9.5" font-family="TimesNewRomanPSMT" font-size="30" kerning="0" fill="#000000">0</tspan>
    </text>
    <text transform="matrix(1, 0, -0, 1, 329.5, 140.5)">
      <tspan x="-7.5" y="9.5" font-family="TimesNewRomanPSMT" font-size="30" kerning="0" fill="#000000">1</tspan>
    </text>
    <text transform="matrix(1, 0, -0, 1, 396.5, 140.5)">
      <tspan x="-7.5" y="9.5" font-family="TimesNewRomanPSMT" font-size="30" kerning="0" fill="#000000">1</tspan>
    </text>
    <text transform="matrix(1, 0, -0, 1, 461.5, 140.5)">
      <tspan x="-7.5" y="9.5" font-family="TimesNewRomanPSMT" font-size="30" kerning="0" fill="#000000">0</tspan>
    </text>
    <text transform="matrix(1, 0, -0, 1, 526.5, 140.5)">
      <tspan x="-7.5" y="9.5" font-family="TimesNewRomanPSMT" font-size="30" kerning="0" fill="#000000">0</tspan>
    </text>
    <text transform="matrix(1, 0, -0, 1, 591.5, 140.5)">
      <tspan x="-7.5" y="9.5" font-family="TimesNewRomanPSMT" font-size="30" kerning="0" fill="#000000">0</tspan>
    </text>
    <text transform="matrix(1, 0, -0, 1, 53.658, 174.5)">
      <tspan x="-6.658" y="9.5" font-family="TimesNewRomanPS-BoldMT" font-size="30" kerning="0" fill="#000000">c</tspan>
    </text>
    <text transform="matrix(1, 0, -0, 1, 122.5, 174.5)">
      <tspan x="-7.5" y="9.5" font-family="TimesNewRomanPSMT" font-size="30" kerning="0" fill="#000000">1</tspan>
    </text>
    <text transform="matrix(1, 0, -0, 1, 191.5, 174.5)">
      <tspan x="-7.5" y="9.5" font-family="TimesNewRomanPSMT" font-size="30" kerning="0" fill="#000000">0</tspan>
    </text>
    <text transform="matrix(1, 0, -0, 1, 260.5, 174.5)">
      <tspan x="-7.5" y="9.5" font-family="TimesNewRomanPSMT" font-size="30" kerning="0" fill="#000000">0</tspan>
    </text>
    <text transform="matrix(1, 0, -0, 1, 329.5, 174.5)">
      <tspan x="-7.5" y="9.5" font-family="TimesNewRomanPSMT" font-size="30" kerning="0" fill="#000000">0</tspan>
    </text>
    <text transform="matrix(1, 0, -0, 1, 396.5, 174.5)">
      <tspan x="-7.5" y="9.5" font-family="TimesNewRomanPSMT" font-size="30" kerning="0" fill="#000000">0</tspan>
    </text>
    <text transform="matrix(1, 0, -0, 1, 461.5, 174.5)">
      <tspan x="-7.5" y="9.5" font-family="TimesNewRomanPSMT" font-size="30" kerning="0" fill="#000000">1</tspan>
    </text>
    <text transform="matrix(1, 0, -0, 1, 526.5, 174.5)">
      <tspan x="-7.5" y="9.5" font-family="TimesNewRomanPSMT" font-size="30" kerning="0" fill="#000000">0</tspan>
    </text>
    <text transform="matrix(1, 0, -0, 1, 591.5, 174.5)">
      <tspan x="-7.5" y="9.5" font-family="TimesNewRomanPSMT" font-size="30" kerning="0" fill="#000000">0</tspan>
    </text>
    <text transform="matrix(1, 0, -0, 1, 53.342, 208.5)">
      <tspan x="-8.342" y="9.5" font-family="TimesNewRomanPS-BoldMT" font-size="30" kerning="0" fill="#000000">d</tspan>
    </text>
    <text transform="matrix(1, 0, -0, 1, 122.5, 208.5)">
      <tspan x="-7.5" y="9.5" font-family="TimesNewRomanPSMT" font-size="30" kerning="0" fill="#000000">0</tspan>
    </text>
    <text transform="matrix(1, 0, -0, 1, 191.5, 208.5)">
      <tspan x="-7.5" y="9.5" font-family="TimesNewRomanPSMT" font-size="30" kerning="0" fill="#000000">1</tspan>
    </text>
    <text transform="matrix(1, 0, -0, 1, 260.5, 208.5)">
      <tspan x="-7.5" y="9.5" font-family="TimesNewRomanPSMT" font-size="30" kerning="0" fill="#000000">0</tspan>
    </text>
    <text transform="matrix(1, 0, -0, 1, 329.5, 208.5)">
      <tspan x="-7.5" y="9.5" font-family="TimesNewRomanPSMT" font-size="30" kerning="0" fill="#000000">1</tspan>
    </text>
    <text transform="matrix(1, 0, -0, 1, 396.5, 208.5)">
      <tspan x="-7.5" y="9.5" font-family="TimesNewRomanPSMT" font-size="30" kerning="0" fill="#000000">0</tspan>
    </text>
    <text transform="matrix(1, 0, -0, 1, 461.5, 208.5)">
      <tspan x="-7.5" y="9.5" font-family="TimesNewRomanPSMT" font-size="30" kerning="0" fill="#000000">0</tspan>
    </text>
    <text transform="matrix(1, 0, -0, 1, 526.5, 208.5)">
      <tspan x="-7.5" y="9.5" font-family="TimesNewRomanPSMT" font-size="30" kerning="0" fill="#000000">1</tspan>
    </text>
    <text transform="matrix(1, 0, -0, 1, 591.5, 208.5)">
      <tspan x="-7.5" y="9.5" font-family="TimesNewRomanPSMT" font-size="30" kerning="0" fill="#000000">1</tspan>
    </text>
    <text transform="matrix(1, 0, -0, 1, 53.658, 242.5)">
      <tspan x="-6.658" y="9.5" font-family="TimesNewRomanPS-BoldMT" font-size="30" kerning="0" fill="#000000">e</tspan>
    </text>
    <text transform="matrix(1, 0, -0, 1, 122.5, 242.5)">
      <tspan x="-7.5" y="9.5" font-family="TimesNewRomanPSMT" font-size="30" kerning="0" fill="#000000">0</tspan>
    </text>
    <text transform="matrix(1, 0, -0, 1, 191.5, 242.5)">
      <tspan x="-7.5" y="9.5" font-family="TimesNewRomanPSMT" font-size="30" kerning="0" fill="#000000">0</tspan>
    </text>
    <text transform="matrix(1, 0, -0, 1, 260.5, 242.5)">
      <tspan x="-7.5" y="9.5" font-family="TimesNewRomanPSMT" font-size="30" kerning="0" fill="#000000">0</tspan>
    </text>
    <text transform="matrix(1, 0, -0, 1, 329.5, 242.5)">
      <tspan x="-7.5" y="9.5" font-family="TimesNewRomanPSMT" font-size="30" kerning="0" fill="#000000">0</tspan>
    </text>
    <text transform="matrix(1, 0, -0, 1, 396.5, 242.5)">
      <tspan x="-7.5" y="9.5" font-family="TimesNewRomanPSMT" font-size="30" kerning="0" fill="#000000">1</tspan>
    </text>
    <text transform="matrix(1, 0, -0, 1, 461.5, 242.5)">
      <tspan x="-7.5" y="9.5" font-family="TimesNewRomanPSMT" font-size="30" kerning="0" fill="#000000">0</tspan>
    </text>
    <text transform="matrix(1, 0, -0, 1, 526.5, 242.5)">
      <tspan x="-7.5" y="9.5" font-family="TimesNewRomanPSMT" font-size="30" kerning="0" fill="#000000">1</tspan>
    </text>
    <text transform="matrix(1, 0, -0, 1, 591.5, 242.5)">
      <tspan x="-7.5" y="9.5" font-family="TimesNewRomanPSMT" font-size="30" kerning="0" fill="#000000">0</tspan>
    </text>
    <text transform="matrix(1, 0, -0, 1, 52.995, 276.5)">
      <tspan x="-4.995" y="9.5" font-family="TimesNewRomanPS-BoldMT" font-size="30" kerning="0" fill="#000000">f</tspan>
    </text>
    <text transform="matrix(1, 0, -0, 1, 122.5, 276.5)">
      <tspan x="-7.5" y="9.5" font-family="TimesNewRomanPSMT" font-size="30" kerning="0" fill="#000000">0</tspan>
    </text>
    <text transform="matrix(1, 0, -0, 1, 191.5, 276.5)">
      <tspan x="-7.5" y="9.5" font-family="TimesNewRomanPSMT" font-size="30" kerning="0" fill="#000000">0</tspan>
    </text>
    <text transform="matrix(1, 0, -0, 1, 260.5, 276.5)">
      <tspan x="-7.5" y="9.5" font-family="TimesNewRomanPSMT" font-size="30" kerning="0" fill="#000000">1</tspan>
    </text>
    <text transform="matrix(1, 0, -0, 1, 329.5, 276.5)">
      <tspan x="-7.5" y="9.5" font-family="TimesNewRomanPSMT" font-size="30" kerning="0" fill="#000000">0</tspan>
    </text>
    <text transform="matrix(1, 0, -0, 1, 396.5, 276.5)">
      <tspan x="-7.5" y="9.5" font-family="TimesNewRomanPSMT" font-size="30" kerning="0" fill="#000000">0</tspan>
    </text>
    <text transform="matrix(1, 0, -0, 1, 461.5, 276.5)">
      <tspan x="-7.5" y="9.5" font-family="TimesNewRomanPSMT" font-size="30" kerning="0" fill="#000000">1</tspan>
    </text>
    <text transform="matrix(1, 0, -0, 1, 526.5, 276.5)">
      <tspan x="-7.5" y="9.5" font-family="TimesNewRomanPSMT" font-size="30" kerning="0" fill="#000000">0</tspan>
    </text>
    <text transform="matrix(1, 0, -0, 1, 591.5, 276.5)">
      <tspan x="-7.5" y="9.5" font-family="TimesNewRomanPSMT" font-size="30" kerning="0" fill="#000000">1</tspan>
    </text>
    <text transform="matrix(1, 0, -0, 1, 53.5, 310.5)">
      <tspan x="-7.5" y="9.5" font-family="TimesNewRomanPS-BoldMT" font-size="30" kerning="0" fill="#000000">g</tspan>
    </text>
    <text transform="matrix(1, 0, -0, 1, 122.5, 310.5)">
      <tspan x="-7.5" y="9.5" font-family="TimesNewRomanPSMT" font-size="30" kerning="0" fill="#000000">0</tspan>
    </text>
    <text transform="matrix(1, 0, -0, 1, 191.5, 310.5)">
      <tspan x="-7.5" y="9.5" font-family="TimesNewRomanPSMT" font-size="30" kerning="0" fill="#000000">0</tspan>
    </text>
    <text transform="matrix(1, 0, -0, 1, 260.5, 310.5)">
      <tspan x="-7.5" y="9.5" font-family="TimesNewRomanPSMT" font-size="30" kerning="0" fill="#000000">0</tspan>
    </text>
    <text transform="matrix(1, 0, -0, 1, 329.5, 310.5)">
      <tspan x="-7.5" y="9.5" font-family="TimesNewRomanPSMT" font-size="30" kerning="0" fill="#000000">0</tspan>
    </text>
    <text transform="matrix(1, 0, -0, 1, 396.5, 310.5)">
      <tspan x="-7.5" y="9.5" font-family="TimesNewRomanPSMT" font-size="30" kerning="0" fill="#000000">0</tspan>
    </text>
    <text transform="matrix(1, 0, -0, 1, 461.5, 310.5)">
      <tspan x="-7.5" y="9.5" font-family="TimesNewRomanPSMT" font-size="30" kerning="0" fill="#000000">0</tspan>
    </text>
    <text transform="matrix(1, 0, -0, 1, 526.5, 310.5)">
      <tspan x="-7.5" y="9.5" font-family="TimesNewRomanPSMT" font-size="30" kerning="0" fill="#000000">0</tspan>
    </text>
    <text transform="matrix(1, 0, -0, 1, 591.5, 310.5)">
      <tspan x="-7.5" y="9.5" font-family="TimesNewRomanPSMT" font-size="30" kerning="0" fill="#000000">0</tspan>
    </text>
    <g clip-path="url(#Clip_1)">
      <text transform="matrix(1, 0, -0, 1, 321.492, 344.5)">
        <tspan x="-16.492" y="9.5" font-family="TimesNewRomanPSMT" font-size="30" kerning="0.009" fill="#000000">(</tspan>
        <tspan x="-6.493" y="9.5" font-family="TimesNewRomanPSMT" font-size="30" kerning="-0.321" fill="#000000">e</tspan>
        <tspan x="6.502" y="9.5" font-family="TimesNewRomanPSMT" font-size="30" kerning="0" fill="#000000">)</tspan>
      </text>
    </g>
    <path d="M87,88 L88,88 L88,327 L87,327 z" fill="#000000"/>
    <path d="M623,89 L624,89 L624,327 L623,327 z" fill="#000000"/>
    <path d="M88,88 L624,88 L624,89 L88,89 z" fill="#000000"/>
    <path d="M88,326 L624,326 L624,327 L88,327 z" fill="#000000"/>
  </g>
</svg>
