<?xml version="1.0" encoding="UTF-8"?>
<!DOCTYPE svg PUBLIC "-//W3C//DTD SVG 1.1//EN" "http://www.w3.org/Graphics/SVG/1.1/DTD/svg11.dtd">
<svg version="1.1" xmlns="http://www.w3.org/2000/svg" xmlns:xlink="http://www.w3.org/1999/xlink" x="0" y="0" width="1132" height="198" viewBox="0, 0, 1132, 198">
  <g id="layer1">
    <g id="g3207">
      <g id="g3199">
        <path d="M292.924,57.749 L431.867,57.749 L431.867,196.692 L292.924,196.692 L292.924,57.749 z" fill-opacity="0" stroke="#000000" stroke-width="1" id="rect2417"/>
        <path d="M432.376,57.749 L571.318,57.749 L571.318,196.692 L432.376,196.692 L432.376,57.749 z" fill-opacity="0" stroke="#000000" stroke-width="1" id="rect2419"/>
        <path d="M571.827,57.749 L710.769,57.749 L710.769,196.692 L571.827,196.692 L571.827,57.749 z" fill-opacity="0" stroke="#000000" stroke-width="1" id="rect2421"/>
        <path d="M711.278,57.749 L850.221,57.749 L850.221,196.692 L711.278,196.692 L711.278,57.749 z" fill-opacity="0" stroke="#000000" stroke-width="1" id="rect2423"/>
        <path d="M850.73,57.749 L989.672,57.749 L989.672,196.692 L850.73,196.692 L850.73,57.749 z" fill-opacity="0" stroke="#000000" stroke-width="1" id="rect2425"/>
        <path d="M990.181,57.749 L1129.123,57.749 L1129.123,196.692 L990.181,196.692 L990.181,57.749 z" fill-opacity="0" stroke="#000000" stroke-width="1" id="rect2427"/>
      </g>
    </g>
    <g id="g9265">
      <path d="M324.374,118.63 L322.527,107.631 L322.527,97.796 L330.756,97.796 L330.756,107.631 L328.83,118.63 L324.374,118.63 z M338.343,137.738 L345.689,137.096 C346.037,140.039 346.847,142.455 348.118,144.341 C349.389,146.228 351.363,147.753 354.039,148.918 C356.715,150.082 359.726,150.664 363.071,150.664 C366.041,150.664 368.664,150.222 370.939,149.339 C373.213,148.456 374.906,147.245 376.017,145.706 C377.127,144.167 377.683,142.488 377.683,140.668 C377.683,138.822 377.147,137.209 376.077,135.831 C375.006,134.453 373.24,133.296 370.778,132.359 C369.199,131.743 365.707,130.787 360.301,129.489 C354.895,128.191 351.108,126.966 348.941,125.816 C346.131,124.344 344.037,122.517 342.659,120.336 C341.28,118.155 340.591,115.713 340.591,113.01 C340.591,110.04 341.434,107.263 343.12,104.681 C344.806,102.098 347.268,100.138 350.506,98.8 C353.744,97.462 357.344,96.793 361.305,96.793 C365.667,96.793 369.514,97.495 372.845,98.9 C376.177,100.305 378.74,102.373 380.533,105.102 C382.326,107.832 383.289,110.923 383.423,114.375 L375.957,114.937 C375.555,111.217 374.197,108.407 371.882,106.507 C369.567,104.607 366.148,103.657 361.626,103.657 C356.916,103.657 353.484,104.52 351.329,106.246 C349.175,107.973 348.098,110.053 348.098,112.488 C348.098,114.603 348.861,116.342 350.386,117.707 C351.885,119.072 355.798,120.47 362.128,121.902 C368.457,123.334 372.799,124.585 375.154,125.655 C378.579,127.234 381.108,129.234 382.741,131.656 C384.373,134.078 385.189,136.868 385.189,140.026 C385.189,143.157 384.293,146.108 382.5,148.877 C380.707,151.647 378.131,153.801 374.772,155.34 C371.414,156.879 367.634,157.648 363.432,157.648 C358.107,157.648 353.644,156.872 350.045,155.32 C346.445,153.768 343.622,151.433 341.575,148.315 C339.527,145.198 338.45,141.672 338.343,137.738 L338.343,137.738 z M395.024,118.63 L393.177,107.631 L393.177,97.796 L401.407,97.796 L401.407,107.631 L399.48,118.63 L395.024,118.63 z" fill="#000000" id="text9233"/>
      <path d="M457.646,118.63 L455.8,107.631 L455.8,97.796 L464.029,97.796 L464.029,107.631 L462.102,118.63 L457.646,118.63 z M474.024,156.645 L474.024,97.796 L485.746,97.796 L499.675,139.464 C500.96,143.344 501.896,146.248 502.485,148.175 C503.154,146.034 504.198,142.89 505.616,138.741 L519.706,97.796 L530.183,97.796 L530.183,156.645 L522.677,156.645 L522.677,107.39 L505.576,156.645 L498.551,156.645 L481.531,106.547 L481.531,156.645 L474.024,156.645 z M541.945,118.63 L540.098,107.631 L540.098,97.796 L548.327,97.796 L548.327,107.631 L546.401,118.63 L541.945,118.63 z" fill="#000000" id="text9237"/>
      <path d="M620.624,118.63 L618.777,107.631 L618.777,97.796 L627.007,97.796 L627.007,107.631 L625.08,118.63 L620.624,118.63 z M638.567,156.645 L638.567,97.796 L646.355,97.796 L646.355,156.645 L638.567,156.645 z M659.16,118.63 L657.314,107.631 L657.314,97.796 L665.543,97.796 L665.543,107.631 L663.616,118.63 L659.16,118.63 z" fill="#000000" id="text9241"/>
      <path d="M746.992,118.63 L745.145,107.631 L745.145,97.796 L753.374,97.796 L753.374,107.631 L751.448,118.63 L746.992,118.63 z M778.584,156.645 L778.584,104.741 L759.195,104.741 L759.195,97.796 L805.84,97.796 L805.84,104.741 L786.371,104.741 L786.371,156.645 L778.584,156.645 z M812.986,118.63 L811.139,107.631 L811.139,97.796 L819.368,97.796 L819.368,107.631 L817.441,118.63 L812.986,118.63 z" fill="#000000" id="text9245"/>
      <path d="M882.512,118.63 L880.666,107.631 L880.666,97.796 L888.895,97.796 L888.895,107.631 L886.968,118.63 L882.512,118.63 z M899.372,156.645 L899.372,97.796 L907.16,97.796 L907.16,121.962 L937.748,121.962 L937.748,97.796 L945.535,97.796 L945.535,156.645 L937.748,156.645 L937.748,128.907 L907.16,128.907 L907.16,156.645 L899.372,156.645 z M957.658,118.63 L955.812,107.631 L955.812,97.796 L964.041,97.796 L964.041,107.631 L962.114,118.63 L957.658,118.63 z" fill="#000000" id="text9249"/>
      <path d="M1018.033,118.63 L1016.186,107.631 L1016.186,97.796 L1024.415,97.796 L1024.415,107.631 L1022.488,118.63 L1018.033,118.63 z M1045.37,157.648 L1028.309,96.793 L1034.13,96.793 L1051.15,157.648 L1045.37,157.648 z M1054.522,127.622 C1054.522,120.664 1055.238,115.064 1056.67,110.823 C1058.101,106.581 1060.229,103.309 1063.052,101.008 C1065.875,98.706 1069.428,97.556 1073.71,97.556 C1076.868,97.556 1079.638,98.191 1082.019,99.462 C1084.401,100.734 1086.368,102.567 1087.92,104.962 C1089.472,107.357 1090.69,110.274 1091.573,113.713 C1092.456,117.152 1092.898,121.788 1092.898,127.622 C1092.898,134.527 1092.189,140.1 1090.77,144.341 C1089.352,148.583 1087.231,151.861 1084.408,154.176 C1081.584,156.491 1078.018,157.648 1073.71,157.648 C1068.036,157.648 1063.581,155.615 1060.343,151.547 C1056.462,146.649 1054.522,138.675 1054.522,127.622 L1054.522,127.622 z M1061.948,127.622 C1061.948,137.283 1063.079,143.712 1065.34,146.91 C1067.602,150.108 1070.391,151.707 1073.71,151.707 C1077.028,151.707 1079.818,150.102 1082.08,146.89 C1084.341,143.679 1085.472,137.256 1085.472,127.622 C1085.472,117.934 1084.341,111.498 1082.08,108.314 C1079.818,105.129 1077.002,103.537 1073.63,103.537 C1070.311,103.537 1067.662,104.942 1065.682,107.752 C1063.193,111.338 1061.948,117.961 1061.948,127.622 L1061.948,127.622 z M1102.331,118.63 L1100.485,107.631 L1100.485,97.796 L1108.714,97.796 L1108.714,107.631 L1106.787,118.63 L1102.331,118.63 z" fill="#000000" id="text9253"/>
    </g>
  </g>
</svg>
