<?xml version="1.0" encoding="UTF-8" standalone="no"?>
<!-- Created with Inkscape (http://www.inkscape.org/) -->
<svg
   xmlns:svg="http://www.w3.org/2000/svg"
   xmlns="http://www.w3.org/2000/svg"
   version="1.0"
   width="1132"
   height="198"
   id="svg2392">
  <defs
     id="defs2394">
    <marker
       refX="0"
       refY="0"
       orient="auto"
       id="TriangleInL"
       style="overflow:visible">
      <path
         d="M 5.77,0 L -2.88,5 L -2.88,-5 L 5.77,0 z"
         transform="scale(-0.8,-0.8)"
         id="path3865"
         style="fill-rule:evenodd;stroke:#000000;stroke-width:1pt;marker-start:none" />
    </marker>
    <marker
       refX="0"
       refY="0"
       orient="auto"
       id="TriangleOutL"
       style="overflow:visible">
      <path
         d="M 5.77,0 L -2.88,5 L -2.88,-5 L 5.77,0 z"
         transform="scale(0.8,0.8)"
         id="path3874"
         style="fill-rule:evenodd;stroke:#000000;stroke-width:1pt;marker-start:none" />
    </marker>
    <marker
       refX="0"
       refY="0"
       orient="auto"
       id="Arrow2Mend"
       style="overflow:visible">
      <path
         d="M 8.7185878,4.0337352 L -2.2072895,0.016013256 L 8.7185884,-4.0017078 C 6.97309,-1.6296469 6.9831476,1.6157441 8.7185878,4.0337352 z"
         transform="scale(-0.6,-0.6)"
         id="path3758"
         style="font-size:12px;fill-rule:evenodd;stroke-width:0.625;stroke-linejoin:round" />
    </marker>
  </defs>
  <g
     transform="translate(100.03375,-113.85454)"
     id="layer1">
    <g
       id="g9399">
      <flowRoot
         id="flowRoot9225"
         xml:space="preserve"
         style="font-size:40px;font-style:normal;font-weight:normal;fill:#000000;fill-opacity:1;stroke:none;stroke-width:1px;stroke-linecap:butt;stroke-linejoin:miter;stroke-opacity:1;font-family:Bitstream Vera Sans"><flowRegion
           id="flowRegion9227"><rect
             width="1.1281085"
             height="65.43029"
             x="9.024868"
             y="-204.13074"
             id="rect9229" /></flowRegion><flowPara
           id="flowPara9231"></flowPara></flowRoot>      <path
         d="M -4.1445312,-34.202061 L -4.1445312,-54.944248 L -0.98046875,-54.944248 L -0.98046875,-51.99503 C 0.54296143,-54.273655 2.7434801,-55.412977 5.6210938,-55.412998 C 6.8710801,-55.412977 8.0201675,-55.188368 9.0683594,-54.73917 C 10.11652,-54.289931 10.901024,-53.700739 11.421875,-52.971592 C 11.94269,-52.242407 12.307273,-51.376523 12.515625,-50.373936 C 12.645814,-49.722879 12.710918,-48.583557 12.710938,-46.955967 L 12.710938,-34.202061 L 9.1953125,-34.202061 L 9.1953125,-46.819248 C 9.1952965,-48.251526 9.0585779,-49.322489 8.7851562,-50.032139 C 8.5117035,-50.741758 8.0266779,-51.308164 7.3300781,-51.731358 C 6.6334501,-52.154517 5.8163937,-52.366105 4.8789062,-52.366123 C 3.3815003,-52.366105 2.0891838,-51.890845 1.0019531,-50.940342 C -0.085293154,-49.989806 -0.6289124,-48.186422 -0.62890625,-45.530186 L -0.62890625,-34.202061 L -4.1445312,-34.202061 z M 31.65625,-36.760655 C 30.354152,-35.653882 29.100898,-34.872633 27.896484,-34.416905 C 26.692046,-33.961176 25.39973,-33.733311 24.019531,-33.733311 C 21.740879,-33.733311 19.989579,-34.289951 18.765625,-35.403233 C 17.541665,-36.516512 16.929686,-37.939036 16.929688,-39.670811 C 16.929686,-40.686429 17.160806,-41.614163 17.623047,-42.454014 C 18.085284,-43.293849 18.690752,-43.967676 19.439453,-44.475498 C 20.188146,-44.9833 21.031244,-45.367414 21.96875,-45.627842 C 22.658847,-45.810122 23.700513,-45.985903 25.09375,-46.155186 C 27.932279,-46.493715 30.022121,-46.897361 31.363281,-47.366123 C 31.376286,-47.847881 31.382797,-48.15387 31.382812,-48.284092 C 31.382797,-49.716368 31.050766,-50.725482 30.386719,-51.311436 C 29.488267,-52.105689 28.153633,-52.502824 26.382812,-52.502842 C 24.729157,-52.502824 23.508456,-52.213111 22.720703,-51.633702 C 21.932936,-51.054258 21.350255,-50.028868 20.972656,-48.55753 L 17.535156,-49.02628 C 17.847654,-50.497618 18.361976,-51.685767 19.078125,-52.590733 C 19.794267,-53.495661 20.829422,-54.192275 22.183594,-54.680577 C 23.537752,-55.168837 25.106761,-55.412977 26.890625,-55.412998 C 28.661445,-55.412977 30.100246,-55.204644 31.207031,-54.787998 C 32.313785,-54.371312 33.127587,-53.847224 33.648438,-53.215733 C 34.169252,-52.584204 34.533835,-51.786679 34.742188,-50.823155 C 34.859356,-50.22418 34.917949,-49.143452 34.917969,-47.580967 L 34.917969,-42.893467 C 34.917949,-39.625233 34.992819,-37.558177 35.142578,-36.692295 C 35.292298,-35.826408 35.588522,-34.996331 36.03125,-34.202061 L 32.359375,-34.202061 C 31.994775,-34.931227 31.7604,-35.784091 31.65625,-36.760655 L 31.65625,-36.760655 z M 31.363281,-44.612217 C 30.087225,-44.091374 28.173164,-43.648666 25.621094,-43.284092 C 24.175773,-43.07575 23.153638,-42.841375 22.554688,-42.580967 C 21.955723,-42.320542 21.493484,-41.939683 21.167969,-41.438389 C 20.842443,-40.93708 20.679682,-40.38044 20.679688,-39.768467 C 20.679682,-38.830963 21.0345,-38.049713 21.744141,-37.424717 C 22.453769,-36.799715 23.492179,-36.487215 24.859375,-36.487217 C 26.213531,-36.487215 27.417957,-36.783439 28.472656,-37.375889 C 29.52733,-37.968333 30.302069,-38.778879 30.796875,-39.80753 C 31.174463,-40.601794 31.363265,-41.773668 31.363281,-43.323155 L 31.363281,-44.612217 z M 40.386719,-34.202061 L 40.386719,-54.944248 L 43.53125,-54.944248 L 43.53125,-52.034092 C 44.182285,-53.049698 45.04817,-53.866755 46.128906,-54.485264 C 47.209626,-55.103733 48.440093,-55.412977 49.820312,-55.412998 C 51.356757,-55.412977 52.616522,-55.093967 53.599609,-54.455967 C 54.582665,-53.817927 55.276024,-52.926001 55.679688,-51.780186 C 57.320293,-54.202041 59.455707,-55.412977 62.085938,-55.412998 C 64.143203,-55.412977 65.725232,-54.843316 66.832031,-53.704014 C 67.938772,-52.564673 68.492157,-50.810117 68.492188,-48.440342 L 68.492188,-34.202061 L 64.996094,-34.202061 L 64.996094,-47.268467 C 64.996067,-48.674703 64.882134,-49.687071 64.654297,-50.305577 C 64.426406,-50.924049 64.012995,-51.422096 63.414062,-51.799717 C 62.815079,-52.177303 62.111955,-52.366105 61.304688,-52.366123 C 59.846332,-52.366105 58.635396,-51.88108 57.671875,-50.911045 C 56.708314,-49.940977 56.226544,-48.388245 56.226562,-46.252842 L 56.226562,-34.202061 L 52.710938,-34.202061 L 52.710938,-47.678623 C 52.710923,-49.241108 52.424464,-50.412982 51.851562,-51.194248 C 51.278632,-51.975481 50.341133,-52.366105 49.039062,-52.366123 C 48.049469,-52.366105 47.134756,-52.105689 46.294922,-51.584873 C 45.45507,-51.064023 44.846347,-50.302305 44.46875,-49.299717 C 44.091139,-48.297099 43.902338,-46.851788 43.902344,-44.96378 L 43.902344,-34.202061 L 40.386719,-34.202061 z M 87.945312,-40.881748 L 91.578125,-40.43253 C 91.005188,-38.31013 89.943992,-36.662996 88.394531,-35.491123 C 86.845036,-34.319248 84.865872,-33.733311 82.457031,-33.733311 C 79.423169,-33.733311 77.017572,-34.667555 75.240234,-36.536045 C 73.462888,-38.404531 72.574217,-41.024971 72.574219,-44.397373 C 72.574217,-47.886943 73.472654,-50.595274 75.269531,-52.522373 C 77.0664,-54.449437 79.397127,-55.412977 82.261719,-55.412998 C 85.035142,-55.412977 87.300765,-54.468968 89.058594,-52.580967 C 90.816387,-50.69293 91.695292,-48.036683 91.695312,-44.612217 C 91.695292,-44.403874 91.688782,-44.091374 91.675781,-43.674717 L 76.207031,-43.674717 C 76.337234,-41.396064 76.981765,-39.651274 78.140625,-38.440342 C 79.299471,-37.229402 80.744782,-36.623934 82.476562,-36.623936 C 83.765612,-36.623934 84.865872,-36.962475 85.777344,-37.639561 C 86.688787,-38.31664 87.411442,-39.397368 87.945312,-40.881748 L 87.945312,-40.881748 z M 76.402344,-46.565342 L 87.984375,-46.565342 C 87.828108,-48.31012 87.3854,-49.618712 86.65625,-50.491123 C 85.536444,-51.845272 84.084622,-52.522355 82.300781,-52.522373 C 80.686188,-52.522355 79.328768,-51.981991 78.228516,-50.90128 C 77.128249,-49.820535 76.519526,-48.375224 76.402344,-46.565342 L 76.402344,-46.565342 z"
         transform="matrix(2.5066582,0,0,2.5066582,-89.644829,253.56415)"
         id="flowRoot9217"
         style="font-size:40px;font-style:normal;font-weight:normal;fill:#000000;fill-opacity:1;stroke:none;stroke-width:1px;stroke-linecap:butt;stroke-linejoin:miter;stroke-opacity:1;font-family:Bitstream Vera Sans" />
      <g
         transform="translate(0,0.8081593)"
         id="g9279">
        <g
           transform="translate(0,-0.5802327)"
           id="g9205">
          <g
             id="g3207">
            <path
               d="M -16.946388,171.22493 L 50.536858,171.22493 L 50.536858,310.4696 L -16.946388,310.4696 L -16.946388,171.22493 z"
               id="rect2415"
               style="fill:none;stroke:#000000;stroke-width:0.69767416;stroke-opacity:1" />
            <g
               id="g3199">
              <path
                 d="M 192.89066,171.3761 L 331.83301,171.3761 L 331.83301,310.31845 L 192.89066,310.31845 L 192.89066,171.3761 z"
                 id="rect2417"
                 style="fill:none;stroke:#000000;stroke-opacity:1" />
              <path
                 d="M 332.34192,171.3761 L 471.28427,171.3761 L 471.28427,310.31845 L 332.34192,310.31845 L 332.34192,171.3761 z"
                 id="rect2419"
                 style="fill:none;stroke:#000000;stroke-opacity:1" />
              <path
                 d="M 471.79327,171.3761 L 610.73563,171.3761 L 610.73563,310.31845 L 471.79327,310.31845 L 471.79327,171.3761 z"
                 id="rect2421"
                 style="fill:none;stroke:#000000;stroke-opacity:1" />
              <path
                 d="M 611.24451,171.3761 L 750.18686,171.3761 L 750.18686,310.31845 L 611.24451,310.31845 L 611.24451,171.3761 z"
                 id="rect2423"
                 style="fill:none;stroke:#000000;stroke-opacity:1" />
              <path
                 d="M 750.6958,171.3761 L 889.63815,171.3761 L 889.63815,310.31845 L 750.6958,310.31845 L 750.6958,171.3761 z"
                 id="rect2425"
                 style="fill:none;stroke:#000000;stroke-opacity:1" />
              <path
                 d="M 890.14709,171.3761 L 1029.0894,171.3761 L 1029.0894,310.31845 L 890.14709,310.31845 L 890.14709,171.3761 z"
                 id="rect2427"
                 style="fill:none;stroke:#000000;stroke-opacity:1" />
            </g>
          </g>
          <path
             d="M 51.892822,240.84727 L 185.08604,240.84727 L 183.62238,240.84727"
             id="path3217"
             style="fill:none;fill-rule:evenodd;stroke:#000000;stroke-width:1.96059489;stroke-linecap:butt;stroke-linejoin:miter;marker-start:none;marker-end:url(#TriangleInL);stroke-miterlimit:4;stroke-dasharray:none;stroke-opacity:1" />
        </g>
        <g
           transform="translate(1.1281085,111.68274)"
           id="g9265">
          <path
             d="M 223.2119,119.99387 L 221.36536,108.99491 L 221.36536,99.160069 L 229.59451,99.160069 L 229.59451,108.99491 L 227.66769,119.99387 L 223.2119,119.99387 z M 237.18139,139.10155 L 244.52741,138.45928 C 244.8753,141.40306 245.68483,143.81828 246.95601,145.70495 C 248.22717,147.59164 250.20082,149.11704 252.87699,150.28116 C 255.55311,151.44529 258.56377,152.02735 261.90898,152.02734 C 264.87947,152.02735 267.50209,151.58578 269.77685,150.70265 C 272.05154,149.81953 273.7442,148.60857 274.85484,147.06978 C 275.9654,145.53101 276.5207,143.85173 276.52074,142.03194 C 276.5207,140.18541 275.98547,138.57304 274.91505,137.1948 C 273.84455,135.81661 272.0783,134.65917 269.61628,133.7225 C 268.03732,133.10701 264.54495,132.15029 259.13917,130.85233 C 253.73333,129.55443 249.94659,128.33009 247.77893,127.17932 C 244.96896,125.70747 242.87488,123.88101 241.49667,121.69991 C 240.11845,119.51889 239.42934,117.07691 239.42935,114.37396 C 239.42934,111.40349 240.27233,108.62699 241.95831,106.04446 C 243.64427,103.46203 246.10632,101.50175 249.34447,100.16362 C 252.58259,98.825609 256.182,98.156574 260.14272,98.156514 C 264.50481,98.156574 268.35177,98.859061 271.68361,100.26398 C 275.01537,101.66901 277.57777,103.73633 279.37084,106.46595 C 281.16381,109.19567 282.12722,112.28661 282.26107,115.7388 L 274.79463,116.30079 C 274.39316,112.58099 273.03502,109.77104 270.72019,107.87093 C 268.40529,105.97091 264.98652,105.02088 260.46386,105.02083 C 255.75382,105.02088 252.32167,105.88394 250.16739,107.61 C 248.01308,109.33616 246.93593,111.41687 246.93594,113.85211 C 246.93593,115.96631 247.69863,117.7058 249.22405,119.0706 C 250.72267,120.43547 254.63653,121.83376 260.96564,123.26546 C 267.29469,124.69723 271.63673,125.94833 273.99178,127.01875 C 277.41721,128.59771 279.94616,130.59813 281.57866,133.02001 C 283.21106,135.44195 284.02728,138.23183 284.02733,141.38966 C 284.02728,144.52076 283.13077,147.47121 281.3378,150.24101 C 279.54474,153.01083 276.96895,155.16513 273.61043,156.70391 C 270.25183,158.24269 266.47178,159.01208 262.27026,159.01208 C 256.94471,159.01208 252.48224,158.236 248.88284,156.68384 C 245.28341,155.13168 242.46008,152.79674 240.41283,149.67902 C 238.36558,146.56132 237.28843,143.03551 237.18139,139.10155 L 237.18139,139.10155 z M 293.86217,119.99387 L 292.01563,108.99491 L 292.01563,99.160069 L 300.24478,99.160069 L 300.24478,108.99491 L 298.31795,119.99387 L 293.86217,119.99387 z"
             id="text9233"
             style="font-size:82.21121979px;font-style:normal;font-weight:normal;fill:#000000;fill-opacity:1;stroke:none;stroke-width:1px;stroke-linecap:butt;stroke-linejoin:miter;stroke-opacity:1;font-family:Bitstream Vera Sans" />
          <path
             d="M 356.48433,119.99387 L 354.63779,108.99491 L 354.63779,99.160069 L 362.86694,99.160069 L 362.86694,108.99491 L 360.94012,119.99387 L 356.48433,119.99387 z M 372.86235,158.00853 L 372.86235,99.160069 L 384.58387,99.160069 L 398.51321,140.82767 C 399.79773,144.70809 400.73438,147.61171 401.32317,149.53853 C 401.99217,147.39762 403.03586,144.25315 404.45426,140.10511 L 418.54417,99.160069 L 429.02128,99.160069 L 429.02128,158.00853 L 421.51469,158.00853 L 421.51469,108.75405 L 404.41412,158.00853 L 397.38923,158.00853 L 380.36894,107.91107 L 380.36894,158.00853 L 372.86235,158.00853 z M 440.78295,119.99387 L 438.93641,108.99491 L 438.93641,99.160069 L 447.16556,99.160069 L 447.16556,108.99491 L 445.23873,119.99387 L 440.78295,119.99387 z"
             id="text9237"
             style="font-size:82.21121979px;font-style:normal;font-weight:normal;fill:#000000;fill-opacity:1;stroke:none;stroke-width:1px;stroke-linecap:butt;stroke-linejoin:miter;stroke-opacity:1;font-family:Bitstream Vera Sans" />
          <path
             d="M 519.46202,119.99387 L 517.61548,108.99491 L 517.61548,99.160069 L 525.84463,99.160069 L 525.84463,108.99491 L 523.91781,119.99387 L 519.46202,119.99387 z M 537.40559,158.00853 L 537.40559,99.160069 L 545.19317,99.160069 L 545.19317,158.00853 L 537.40559,158.00853 z M 557.99853,119.99387 L 556.15199,108.99491 L 556.15199,99.160069 L 564.38114,99.160069 L 564.38114,108.99491 L 562.45432,119.99387 L 557.99853,119.99387 z"
             id="text9241"
             style="font-size:82.21121979px;font-style:normal;font-weight:normal;fill:#000000;fill-opacity:1;stroke:none;stroke-width:1px;stroke-linecap:butt;stroke-linejoin:miter;stroke-opacity:1;font-family:Bitstream Vera Sans" />
          <path
             d="M 645.83001,119.99387 L 643.98346,108.99491 L 643.98346,99.160069 L 652.21261,99.160069 L 652.21261,108.99491 L 650.28579,119.99387 L 645.83001,119.99387 z M 677.42191,158.00853 L 677.42191,106.10467 L 658.03323,106.10467 L 658.03323,99.160069 L 704.67847,99.160069 L 704.67847,106.10467 L 685.2095,106.10467 L 685.2095,158.00853 L 677.42191,158.00853 z M 711.82378,119.99387 L 709.97724,108.99491 L 709.97724,99.160069 L 718.20639,99.160069 L 718.20639,108.99491 L 716.27956,119.99387 L 711.82378,119.99387 z"
             id="text9245"
             style="font-size:82.21121979px;font-style:normal;font-weight:normal;fill:#000000;fill-opacity:1;stroke:none;stroke-width:1px;stroke-linecap:butt;stroke-linejoin:miter;stroke-opacity:1;font-family:Bitstream Vera Sans" />
          <path
             d="M 781.35039,119.99387 L 779.50385,108.99491 L 779.50385,99.160069 L 787.733,99.160069 L 787.733,108.99491 L 785.80617,119.99387 L 781.35039,119.99387 z M 798.21011,158.00853 L 798.21011,99.160069 L 805.9977,99.160069 L 805.9977,123.32567 L 836.58605,123.32567 L 836.58605,99.160069 L 844.37364,99.160069 L 844.37364,158.00853 L 836.58605,158.00853 L 836.58605,130.27027 L 805.9977,130.27027 L 805.9977,158.00853 L 798.21011,158.00853 z M 856.49659,119.99387 L 854.65004,108.99491 L 854.65004,99.160069 L 862.87919,99.160069 L 862.87919,108.99491 L 860.95237,119.99387 L 856.49659,119.99387 z"
             id="text9249"
             style="font-size:82.21121979px;font-style:normal;font-weight:normal;fill:#000000;fill-opacity:1;stroke:none;stroke-width:1px;stroke-linecap:butt;stroke-linejoin:miter;stroke-opacity:1;font-family:Bitstream Vera Sans" />
          <path
             d="M 916.87084,119.99387 L 915.0243,108.99491 L 915.0243,99.160069 L 923.25345,99.160069 L 923.25345,108.99491 L 921.32662,119.99387 L 916.87084,119.99387 z M 944.20767,159.01208 L 927.14724,98.156514 L 932.96786,98.156514 L 949.98815,159.01208 L 944.20767,159.01208 z M 953.3601,128.98572 C 953.36009,122.02778 954.07596,116.42795 955.5077,112.18621 C 956.93944,107.94457 959.06697,104.67298 961.89031,102.37144 C 964.71363,100.07002 968.26621,98.919275 972.54807,98.919215 C 975.70589,98.919275 978.4757,99.554859 980.8575,100.82597 C 983.23924,102.0972 985.2062,103.93035 986.7584,106.32545 C 988.31053,108.72065 989.52818,111.63765 990.41134,115.07645 C 991.29443,118.51534 991.73599,123.15176 991.73604,128.98572 C 991.73599,135.8902 991.02682,141.46327 989.6085,145.70495 C 988.1901,149.94665 986.06926,153.22492 983.24596,155.53978 C 980.4226,157.85465 976.85664,159.01208 972.54807,159.01208 C 966.87462,159.01208 962.41884,156.97821 959.18071,152.91047 C 955.3003,148.01313 953.36009,140.03822 953.3601,128.98572 L 953.3601,128.98572 z M 960.7864,128.98572 C 960.78639,138.64663 961.91706,145.07606 964.17842,148.27405 C 966.43975,151.47205 969.22963,153.07104 972.54807,153.07104 C 975.86646,153.07104 978.65634,151.46536 980.91771,148.25398 C 983.17903,145.04261 984.3097,138.61987 984.30973,128.98572 C 984.3097,119.29811 983.17903,112.86198 980.91771,109.67732 C 978.65634,106.49276 975.8397,104.90046 972.46778,104.9004 C 969.14934,104.90046 966.49996,106.30543 964.51963,109.11533 C 962.0308,112.70142 960.78639,119.32487 960.7864,128.98572 L 960.7864,128.98572 z M 1001.1695,119.99387 L 999.32291,108.99491 L 999.32291,99.160069 L 1007.5521,99.160069 L 1007.5521,108.99491 L 1005.6252,119.99387 L 1001.1695,119.99387 z"
             id="text9253"
             style="font-size:82.21121979px;font-style:normal;font-weight:normal;fill:#000000;fill-opacity:1;stroke:none;stroke-width:1px;stroke-linecap:butt;stroke-linejoin:miter;stroke-opacity:1;font-family:Bitstream Vera Sans" />
        </g>
      </g>
      <flowRoot
         id="flowRoot9257"
         xml:space="preserve"
         style="font-size:40px;font-style:normal;font-weight:normal;fill:#000000;fill-opacity:1;stroke:none;stroke-width:1px;stroke-linecap:butt;stroke-linejoin:miter;stroke-opacity:1;font-family:Bitstream Vera Sans"><flowRegion
           id="flowRegion9259"><rect
             width="260.59305"
             height="66.558403"
             x="218.85304"
             y="-90.19178"
             id="rect9261" /></flowRegion><flowPara
           id="flowPara9263"></flowPara></flowRoot>    </g>
  </g>
</svg>
