<svg xmlns="http://www.w3.org/2000/svg" xmlns:xlink="http://www.w3.org/1999/xlink" width="763px" height="153px" version="1.1"><defs/><g transform="translate(0.5,0.5)"><rect x="1" y="1" width="760" height="150" fill="none" stroke="none" pointer-events="none"/><rect x="146" y="1" width="30" height="40" fill="none" stroke="none" pointer-events="none"/><g fill="#000000" font-family="Courier New" font-weight="bold" text-anchor="middle" font-size="24px"><text x="161" y="31">x</text></g><rect x="506" y="1" width="70" height="40" fill="none" stroke="none" pointer-events="none"/><g fill="#000000" font-family="Courier New" font-weight="bold" text-anchor="middle" font-size="24px"><text x="541" y="31">xPtr</text></g><rect x="266" y="41" width="30" height="60" fill="#e6e6e6" stroke="#999999" pointer-events="none"/><rect x="506" y="41" width="30" height="60" fill="#e6e6e6" stroke="#999999" pointer-events="none"/><rect x="511" y="41" width="70" height="110" fill="none" stroke="none" pointer-events="none"/><rect x="511" y="41" width="70" height="110" fill="none" stroke="none" pointer-events="none"/><rect x="536" y="41" width="30" height="60" fill="#e6e6e6" stroke="#999999" pointer-events="none"/><rect x="541" y="41" width="100" height="110" fill="none" stroke="none" pointer-events="none"/><rect x="541" y="41" width="100" height="110" fill="none" stroke="none" pointer-events="none"/><rect x="566" y="41" width="30" height="60" fill="#e6e6e6" stroke="#999999" pointer-events="none"/><rect x="571" y="41" width="70" height="110" fill="none" stroke="none" pointer-events="none"/><rect x="571" y="41" width="70" height="110" fill="none" stroke="none" pointer-events="none"/><rect x="596" y="41" width="30" height="60" fill="#e6e6e6" stroke="#999999" pointer-events="none"/><rect x="506" y="41" width="120" height="60" fill="#ffffff" stroke="#000000" pointer-events="none"/><rect x="559" y="64" width="15" height="15" fill="#000000" stroke="#000000" pointer-events="none"/><rect x="601" y="41" width="70" height="110" fill="none" stroke="none" pointer-events="none"/><rect x="601" y="41" width="70" height="110" fill="none" stroke="none" pointer-events="none"/><rect x="601" y="41" width="70" height="110" fill="none" stroke="none" pointer-events="none"/><rect x="626" y="41" width="30" height="60" fill="#e6e6e6" stroke="#999999" pointer-events="none"/><rect x="631" y="41" width="70" height="110" fill="none" stroke="none" pointer-events="none"/><rect x="631" y="41" width="70" height="110" fill="none" stroke="none" pointer-events="none"/><rect x="656" y="41" width="30" height="60" fill="#e6e6e6" stroke="#999999" pointer-events="none"/><rect x="661" y="41" width="100" height="110" fill="none" stroke="none" pointer-events="none"/><rect x="661" y="41" width="100" height="110" fill="none" stroke="none" pointer-events="none"/><rect x="686" y="41" width="30" height="60" fill="#e6e6e6" stroke="#999999" pointer-events="none"/><rect x="691" y="41" width="70" height="110" fill="none" stroke="none" pointer-events="none"/><rect x="691" y="41" width="70" height="110" fill="none" stroke="none" pointer-events="none"/><rect x="716" y="41" width="30" height="60" fill="#e6e6e6" stroke="#999999" pointer-events="none"/><rect x="361" y="41" width="70" height="110" fill="none" stroke="none" pointer-events="none"/><rect x="361" y="41" width="70" height="110" fill="none" stroke="none" pointer-events="none"/><rect x="361" y="41" width="70" height="110" fill="none" stroke="none" pointer-events="none"/><rect x="386" y="41" width="30" height="60" fill="#e6e6e6" stroke="#999999" pointer-events="none"/><rect x="391" y="41" width="70" height="110" fill="none" stroke="none" pointer-events="none"/><rect x="391" y="41" width="70" height="110" fill="none" stroke="none" pointer-events="none"/><rect x="416" y="41" width="30" height="60" fill="#e6e6e6" stroke="#999999" pointer-events="none"/><rect x="421" y="41" width="100" height="110" fill="none" stroke="none" pointer-events="none"/><rect x="421" y="41" width="100" height="110" fill="none" stroke="none" pointer-events="none"/><rect x="446" y="41" width="30" height="60" fill="#e6e6e6" stroke="#999999" pointer-events="none"/><rect x="451" y="41" width="70" height="110" fill="none" stroke="none" pointer-events="none"/><rect x="451" y="41" width="70" height="110" fill="none" stroke="none" pointer-events="none"/><rect x="476" y="41" width="30" height="60" fill="#e6e6e6" stroke="#999999" pointer-events="none"/><rect x="301" y="41" width="100" height="110" fill="none" stroke="none" pointer-events="none"/><rect x="326" y="41" width="30" height="60" fill="#e6e6e6" stroke="#999999" pointer-events="none"/><rect x="331" y="41" width="70" height="110" fill="none" stroke="none" pointer-events="none"/><rect x="331" y="41" width="70" height="110" fill="none" stroke="none" pointer-events="none"/><rect x="356" y="41" width="30" height="60" fill="#e6e6e6" stroke="#999999" pointer-events="none"/><rect x="271" y="41" width="70" height="110" fill="none" stroke="none" pointer-events="none"/><rect x="296" y="41" width="30" height="60" fill="#e6e6e6" stroke="#999999" pointer-events="none"/><rect x="1" y="41" width="70" height="110" fill="none" stroke="none" pointer-events="none"/><rect x="1" y="41" width="70" height="110" fill="none" stroke="none" pointer-events="none"/><rect x="1" y="41" width="70" height="110" fill="none" stroke="none" pointer-events="none"/><rect x="26" y="41" width="30" height="60" fill="#e6e6e6" stroke="#999999" pointer-events="none"/><rect x="31" y="41" width="70" height="110" fill="none" stroke="none" pointer-events="none"/><rect x="31" y="41" width="70" height="110" fill="none" stroke="none" pointer-events="none"/><rect x="56" y="41" width="30" height="60" fill="#e6e6e6" stroke="#999999" pointer-events="none"/><rect x="121" y="41" width="70" height="110" fill="none" stroke="none" pointer-events="none"/><rect x="121" y="41" width="70" height="110" fill="none" stroke="none" pointer-events="none"/><rect x="121" y="41" width="70" height="110" fill="none" stroke="none" pointer-events="none"/><rect x="146" y="41" width="30" height="60" fill="#e6e6e6" stroke="#999999" pointer-events="none"/><rect x="151" y="41" width="70" height="110" fill="none" stroke="none" pointer-events="none"/><rect x="151" y="41" width="70" height="110" fill="none" stroke="none" pointer-events="none"/><rect x="176" y="41" width="30" height="60" fill="#e6e6e6" stroke="#999999" pointer-events="none"/><rect x="181" y="41" width="100" height="110" fill="none" stroke="none" pointer-events="none"/><rect x="181" y="41" width="100" height="110" fill="none" stroke="none" pointer-events="none"/><rect x="206" y="41" width="30" height="60" fill="#e6e6e6" stroke="#999999" pointer-events="none"/><rect x="211" y="41" width="70" height="110" fill="none" stroke="none" pointer-events="none"/><rect x="211" y="41" width="70" height="110" fill="none" stroke="none" pointer-events="none"/><rect x="236" y="41" width="30" height="60" fill="#e6e6e6" stroke="#999999" pointer-events="none"/><rect x="146" y="41" width="120" height="60" fill="#ffffff" stroke="#000000" pointer-events="none"/><rect x="156" y="41" width="100" height="60" fill="none" stroke="none" pointer-events="none"/><g fill="#000000" font-family="Courier New" font-weight="bold" text-anchor="middle" font-size="24px"><text x="206" y="81">75</text></g><rect x="61" y="41" width="100" height="110" fill="none" stroke="none" pointer-events="none"/><rect x="86" y="41" width="30" height="60" fill="#e6e6e6" stroke="#999999" pointer-events="none"/><rect x="91" y="41" width="70" height="110" fill="none" stroke="none" pointer-events="none"/><rect x="91" y="41" width="70" height="110" fill="none" stroke="none" pointer-events="none"/><rect x="116" y="41" width="30" height="60" fill="#e6e6e6" stroke="#999999" pointer-events="none"/><path d="M 567 79 L 567 121 Q 567 131 557 131 L 216 131 Q 206 131 206 122 L 206 113" fill="none" stroke="#000000" stroke-width="4" stroke-miterlimit="10" pointer-events="none"/><path d="M 206 105 L 211 115 L 206 113 L 201 115 Z" fill="#000000" stroke="#000000" stroke-width="4" stroke-miterlimit="10" pointer-events="none"/></g></svg>