<?xml version="1.0" encoding="UTF-8"?>
<!DOCTYPE svg PUBLIC "-//W3C//DTD SVG 1.1//EN" "http://www.w3.org/Graphics/SVG/1.1/DTD/svg11.dtd">
<svg version="1.1" xmlns="http://www.w3.org/2000/svg" xmlns:xlink="http://www.w3.org/1999/xlink" x="0" y="0" width="842" height="145" viewBox="0, 0, 842, 145">
  <g id="layer1">
    <g id="g3199">
      <path d="M2.924,4.749 L141.867,4.749 L141.867,143.692 L2.924,143.692 L2.924,4.749 z" fill-opacity="0" stroke="#000000" stroke-width="1" id="rect2417"/>
      <path d="M142.376,4.749 L281.318,4.749 L281.318,143.692 L142.376,143.692 L142.376,4.749 z" fill-opacity="0" stroke="#000000" stroke-width="1" id="rect2419"/>
      <path d="M281.827,4.749 L420.769,4.749 L420.769,143.692 L281.827,143.692 L281.827,4.749 z" fill-opacity="0" stroke="#000000" stroke-width="1" id="rect2421"/>
      <path d="M421.278,4.749 L560.221,4.749 L560.221,143.692 L421.278,143.692 L421.278,4.749 z" fill-opacity="0" stroke="#000000" stroke-width="1" id="rect2423"/>
      <path d="M560.73,4.749 L699.672,4.749 L699.672,143.692 L560.73,143.692 L560.73,4.749 z" fill-opacity="0" stroke="#000000" stroke-width="1" id="rect2425"/>
      <path d="M700.181,4.749 L839.123,4.749 L839.123,143.692 L700.181,143.692 L700.181,4.749 z" fill-opacity="0" stroke="#000000" stroke-width="1" id="rect2427"/>
    </g>
    <g id="g9265">
      <path d="M34.374,65.63 L32.527,54.631 L32.527,44.796 L40.756,44.796 L40.756,54.631 L38.83,65.63 L34.374,65.63 z M48.343,84.738 L55.689,84.096 C56.037,87.039 56.847,89.455 58.118,91.341 C59.389,93.228 61.363,94.753 64.039,95.918 C66.715,97.082 69.726,97.664 73.071,97.664 C76.041,97.664 78.664,97.222 80.939,96.339 C83.213,95.456 84.906,94.245 86.017,92.706 C87.127,91.167 87.683,89.488 87.683,87.668 C87.683,85.822 87.147,84.209 86.077,82.831 C85.006,81.453 83.24,80.296 80.778,79.359 C79.199,78.743 75.707,77.787 70.301,76.489 C64.895,75.191 61.108,73.966 58.941,72.816 C56.131,71.344 54.037,69.517 52.659,67.336 C51.28,65.155 50.591,62.713 50.591,60.01 C50.591,57.04 51.434,54.263 53.12,51.681 C54.806,49.098 57.268,47.138 60.506,45.8 C63.744,44.462 67.344,43.793 71.305,43.793 C75.667,43.793 79.514,44.495 82.845,45.9 C86.177,47.305 88.74,49.373 90.533,52.102 C92.326,54.832 93.289,57.923 93.423,61.375 L85.957,61.937 C85.555,58.217 84.197,55.407 81.882,53.507 C79.567,51.607 76.148,50.657 71.626,50.657 C66.916,50.657 63.484,51.52 61.329,53.246 C59.175,54.973 58.098,57.053 58.098,59.488 C58.098,61.603 58.861,63.342 60.386,64.707 C61.885,66.072 65.798,67.47 72.128,68.902 C78.457,70.334 82.799,71.585 85.154,72.655 C88.579,74.234 91.108,76.234 92.741,78.656 C94.373,81.078 95.189,83.868 95.189,87.026 C95.189,90.157 94.293,93.108 92.5,95.877 C90.707,98.647 88.131,100.801 84.772,102.34 C81.414,103.879 77.634,104.648 73.432,104.648 C68.107,104.648 63.644,103.872 60.045,102.32 C56.445,100.768 53.622,98.433 51.575,95.315 C49.527,92.198 48.45,88.672 48.343,84.738 L48.343,84.738 z M105.024,65.63 L103.177,54.631 L103.177,44.796 L111.407,44.796 L111.407,54.631 L109.48,65.63 L105.024,65.63 z" fill="#000000" id="text9233"/>
      <path d="M167.646,65.63 L165.8,54.631 L165.8,44.796 L174.029,44.796 L174.029,54.631 L172.102,65.63 L167.646,65.63 z M184.024,103.645 L184.024,44.796 L195.746,44.796 L209.675,86.464 C210.96,90.344 211.896,93.248 212.485,95.175 C213.154,93.034 214.198,89.89 215.616,85.741 L229.706,44.796 L240.183,44.796 L240.183,103.645 L232.677,103.645 L232.677,54.39 L215.576,103.645 L208.551,103.645 L191.531,53.547 L191.531,103.645 L184.024,103.645 z M251.945,65.63 L250.098,54.631 L250.098,44.796 L258.327,44.796 L258.327,54.631 L256.401,65.63 L251.945,65.63 z" fill="#000000" id="text9237"/>
      <path d="M330.624,65.63 L328.777,54.631 L328.777,44.796 L337.007,44.796 L337.007,54.631 L335.08,65.63 L330.624,65.63 z M348.567,103.645 L348.567,44.796 L356.355,44.796 L356.355,103.645 L348.567,103.645 z M369.16,65.63 L367.314,54.631 L367.314,44.796 L375.543,44.796 L375.543,54.631 L373.616,65.63 L369.16,65.63 z" fill="#000000" id="text9241"/>
      <path d="M456.992,65.63 L455.145,54.631 L455.145,44.796 L463.374,44.796 L463.374,54.631 L461.448,65.63 L456.992,65.63 z M488.584,103.645 L488.584,51.741 L469.195,51.741 L469.195,44.796 L515.84,44.796 L515.84,51.741 L496.371,51.741 L496.371,103.645 L488.584,103.645 z M522.986,65.63 L521.139,54.631 L521.139,44.796 L529.368,44.796 L529.368,54.631 L527.441,65.63 L522.986,65.63 z" fill="#000000" id="text9245"/>
      <path d="M592.512,65.63 L590.666,54.631 L590.666,44.796 L598.895,44.796 L598.895,54.631 L596.968,65.63 L592.512,65.63 z M609.372,103.645 L609.372,44.796 L617.16,44.796 L617.16,68.962 L647.748,68.962 L647.748,44.796 L655.535,44.796 L655.535,103.645 L647.748,103.645 L647.748,75.907 L617.16,75.907 L617.16,103.645 L609.372,103.645 z M667.658,65.63 L665.812,54.631 L665.812,44.796 L674.041,44.796 L674.041,54.631 L672.114,65.63 L667.658,65.63 z" fill="#000000" id="text9249"/>
      <path d="M728.033,65.63 L726.186,54.631 L726.186,44.796 L734.415,44.796 L734.415,54.631 L732.488,65.63 L728.033,65.63 z M755.37,104.648 L738.309,43.793 L744.13,43.793 L761.15,104.648 L755.37,104.648 z M764.522,74.622 C764.522,67.664 765.238,62.064 766.67,57.823 C768.101,53.581 770.229,50.309 773.052,48.008 C775.875,45.706 779.428,44.556 783.71,44.556 C786.868,44.556 789.638,45.191 792.019,46.462 C794.401,47.734 796.368,49.567 797.92,51.962 C799.472,54.357 800.69,57.274 801.573,60.713 C802.456,64.152 802.898,68.788 802.898,74.622 C802.898,81.527 802.189,87.1 800.77,91.341 C799.352,95.583 797.231,98.861 794.408,101.176 C791.584,103.491 788.018,104.648 783.71,104.648 C778.036,104.648 773.581,102.615 770.343,98.547 C766.462,93.649 764.522,85.675 764.522,74.622 L764.522,74.622 z M771.948,74.622 C771.948,84.283 773.079,90.712 775.34,93.91 C777.602,97.108 780.391,98.707 783.71,98.707 C787.028,98.707 789.818,97.102 792.08,93.89 C794.341,90.679 795.472,84.256 795.472,74.622 C795.472,64.934 794.341,58.498 792.08,55.314 C789.818,52.129 787.002,50.537 783.63,50.537 C780.311,50.537 777.662,51.942 775.682,54.752 C773.193,58.338 771.948,64.961 771.948,74.622 L771.948,74.622 z M812.331,65.63 L810.485,54.631 L810.485,44.796 L818.714,44.796 L818.714,54.631 L816.787,65.63 L812.331,65.63 z" fill="#000000" id="text9253"/>
    </g>
  </g>
</svg>
