<svg xmlns="http://www.w3.org/2000/svg" xmlns:xlink="http://www.w3.org/1999/xlink" width="1255px" height="138px" version="1.1"><defs/><g transform="translate(0.5,0.5)"><rect x="53" y="76" width="80" height="60" fill="#ffffff" stroke="#000000" pointer-events="none"/><rect x="133" y="76" width="80" height="60" fill="#ffffff" stroke="#000000" pointer-events="none"/><rect x="213" y="76" width="80" height="60" fill="#ffffff" stroke="#000000" pointer-events="none"/><rect x="293" y="76" width="80" height="60" fill="#ffffff" stroke="#000000" pointer-events="none"/><rect x="373" y="76" width="80" height="60" fill="#ffffff" stroke="#000000" pointer-events="none"/><rect x="453" y="76" width="80" height="60" fill="#ffffff" stroke="#000000" pointer-events="none"/><rect x="533" y="76" width="80" height="60" fill="#ffffff" stroke="#000000" pointer-events="none"/><rect x="613" y="76" width="80" height="60" fill="#ffffff" stroke="#000000" pointer-events="none"/><rect x="693" y="76" width="80" height="60" fill="#ffffff" stroke="#000000" pointer-events="none"/><rect x="1" y="1" width="120" height="50" fill="none" stroke="none" pointer-events="none"/><g fill="#000000" font-family="Courier New" font-weight="bold" text-anchor="middle" font-size="36px"><text x="61" y="42">votes</text></g><rect x="61" y="41" width="65" height="35" fill="none" stroke="none" pointer-events="none"/><g fill="#000000" font-family="Courier New" font-weight="bold" text-anchor="middle" font-size="18px"><text x="94" y="66">[0][0]</text></g><rect x="773" y="76" width="80" height="60" fill="#ffffff" stroke="#000000" pointer-events="none"/><rect x="853" y="76" width="80" height="60" fill="#ffffff" stroke="#000000" pointer-events="none"/><rect x="933" y="76" width="80" height="60" fill="#ffffff" stroke="#000000" pointer-events="none"/><rect x="1013" y="76" width="80" height="60" fill="#ffffff" stroke="#000000" pointer-events="none"/><rect x="1093" y="76" width="80" height="60" fill="#ffffff" stroke="#000000" pointer-events="none"/><rect x="1173" y="76" width="80" height="60" fill="#ffffff" stroke="#000000" pointer-events="none"/><path d="M 31 51 L 31 81 Q 31 91 37 91 L 40 91 Q 43 91 43 91 L 43 91" fill="none" stroke="#000000" stroke-width="3" stroke-miterlimit="10" pointer-events="none"/><path d="M 50 91 L 41 96 L 43 91 L 41 87 Z" fill="#000000" stroke="#000000" stroke-width="3" stroke-miterlimit="10" pointer-events="none"/><rect x="141" y="41" width="65" height="35" fill="none" stroke="none" pointer-events="none"/><g fill="#000000" font-family="Courier New" font-weight="bold" text-anchor="middle" font-size="18px"><text x="174" y="66">[0][1]</text></g><rect x="221" y="41" width="65" height="35" fill="none" stroke="none" pointer-events="none"/><g fill="#000000" font-family="Courier New" font-weight="bold" text-anchor="middle" font-size="18px"><text x="254" y="66">[0][2]</text></g><rect x="301" y="41" width="65" height="35" fill="none" stroke="none" pointer-events="none"/><g fill="#000000" font-family="Courier New" font-weight="bold" text-anchor="middle" font-size="18px"><text x="334" y="66">[1][0]</text></g><rect x="381" y="41" width="65" height="35" fill="none" stroke="none" pointer-events="none"/><g fill="#000000" font-family="Courier New" font-weight="bold" text-anchor="middle" font-size="18px"><text x="414" y="66">[1][1]</text></g><rect x="461" y="41" width="65" height="35" fill="none" stroke="none" pointer-events="none"/><g fill="#000000" font-family="Courier New" font-weight="bold" text-anchor="middle" font-size="18px"><text x="494" y="66">[1][2]</text></g><rect x="541" y="41" width="65" height="35" fill="none" stroke="none" pointer-events="none"/><g fill="#000000" font-family="Courier New" font-weight="bold" text-anchor="middle" font-size="18px"><text x="574" y="66">[2][0]</text></g><rect x="621" y="41" width="65" height="35" fill="none" stroke="none" pointer-events="none"/><g fill="#000000" font-family="Courier New" font-weight="bold" text-anchor="middle" font-size="18px"><text x="654" y="66">[2][1]</text></g><rect x="701" y="41" width="65" height="35" fill="none" stroke="none" pointer-events="none"/><g fill="#000000" font-family="Courier New" font-weight="bold" text-anchor="middle" font-size="18px"><text x="734" y="66">[2][2]</text></g><rect x="781" y="41" width="65" height="35" fill="none" stroke="none" pointer-events="none"/><g fill="#000000" font-family="Courier New" font-weight="bold" text-anchor="middle" font-size="18px"><text x="814" y="66">[3][0]</text></g><rect x="861" y="41" width="65" height="35" fill="none" stroke="none" pointer-events="none"/><g fill="#000000" font-family="Courier New" font-weight="bold" text-anchor="middle" font-size="18px"><text x="894" y="66">[3][1]</text></g><rect x="941" y="41" width="65" height="35" fill="none" stroke="none" pointer-events="none"/><g fill="#000000" font-family="Courier New" font-weight="bold" text-anchor="middle" font-size="18px"><text x="974" y="66">[3][2]</text></g><rect x="1021" y="41" width="65" height="35" fill="none" stroke="none" pointer-events="none"/><g fill="#000000" font-family="Courier New" font-weight="bold" text-anchor="middle" font-size="18px"><text x="1054" y="66">[4][0]</text></g><rect x="1101" y="41" width="65" height="35" fill="none" stroke="none" pointer-events="none"/><g fill="#000000" font-family="Courier New" font-weight="bold" text-anchor="middle" font-size="18px"><text x="1134" y="66">[4][1]</text></g><rect x="1181" y="41" width="65" height="35" fill="none" stroke="none" pointer-events="none"/><g fill="#000000" font-family="Courier New" font-weight="bold" text-anchor="middle" font-size="18px"><text x="1214" y="66">[4][2]</text></g></g></svg>