<svg xmlns="http://www.w3.org/2000/svg" xmlns:xlink="http://www.w3.org/1999/xlink" width="763px" height="178px" version="1.1"><defs/><g transform="translate(0.5,0.5)"><rect x="1" y="1" width="760" height="150" fill="none" stroke="none" pointer-events="none"/><rect x="1" y="41" width="760" height="110" fill="none" stroke="none" pointer-events="none"/><rect x="1" y="41" width="160" height="110" fill="none" stroke="none" pointer-events="none"/><rect x="1" y="41" width="70" height="110" fill="none" stroke="none" pointer-events="none"/><rect x="1" y="41" width="70" height="110" fill="none" stroke="none" pointer-events="none"/><rect x="1" y="41" width="70" height="110" fill="none" stroke="none" pointer-events="none"/><rect x="26" y="41" width="30" height="60" fill="#e6e6e6" stroke="#999999" pointer-events="none"/><rect x="1" y="131" width="70" height="20" fill="none" stroke="none" transform="rotate(90,36,141)" pointer-events="none"/><g fill="#000000" font-family="Courier New" font-weight="bold" text-anchor="middle" font-size="18px" transform="rotate(90,36,141)"><text x="36" y="148">0x8010</text></g><rect x="31" y="41" width="70" height="110" fill="none" stroke="none" pointer-events="none"/><rect x="31" y="41" width="70" height="110" fill="none" stroke="none" pointer-events="none"/><rect x="56" y="41" width="30" height="60" fill="#e6e6e6" stroke="#999999" pointer-events="none"/><rect x="31" y="131" width="70" height="20" fill="none" stroke="none" transform="rotate(90,66,141)" pointer-events="none"/><g fill="#000000" font-family="Courier New" font-weight="bold" text-anchor="middle" font-size="18px" transform="rotate(90,66,141)"><text x="66" y="148">0x8011</text></g><rect x="61" y="41" width="100" height="110" fill="none" stroke="none" pointer-events="none"/><rect x="61" y="41" width="100" height="110" fill="none" stroke="none" pointer-events="none"/><rect x="86" y="41" width="30" height="60" fill="#e6e6e6" stroke="#999999" pointer-events="none"/><rect x="61" y="131" width="70" height="20" fill="none" stroke="none" transform="rotate(90,96,141)" pointer-events="none"/><g fill="#000000" font-family="Courier New" font-weight="bold" text-anchor="middle" font-size="18px" transform="rotate(90,96,141)"><text x="96" y="148">0x8012</text></g><rect x="91" y="41" width="70" height="110" fill="none" stroke="none" pointer-events="none"/><rect x="91" y="41" width="70" height="110" fill="none" stroke="none" pointer-events="none"/><rect x="116" y="41" width="30" height="60" fill="#e6e6e6" stroke="#999999" pointer-events="none"/><rect x="91" y="131" width="70" height="20" fill="none" stroke="none" transform="rotate(90,126,141)" pointer-events="none"/><g fill="#000000" font-family="Courier New" font-weight="bold" text-anchor="middle" font-size="18px" transform="rotate(90,126,141)"><text x="126" y="148">0x8013</text></g><rect x="121" y="41" width="160" height="110" fill="none" stroke="none" pointer-events="none"/><rect x="121" y="41" width="70" height="110" fill="none" stroke="none" pointer-events="none"/><rect x="121" y="41" width="70" height="110" fill="none" stroke="none" pointer-events="none"/><rect x="121" y="41" width="70" height="110" fill="none" stroke="none" pointer-events="none"/><rect x="146" y="41" width="30" height="60" fill="#e6e6e6" stroke="#999999" pointer-events="none"/><rect x="121" y="131" width="70" height="20" fill="none" stroke="none" transform="rotate(90,156,141)" pointer-events="none"/><g fill="#000000" font-family="Courier New" font-weight="bold" text-anchor="middle" font-size="18px" transform="rotate(90,156,141)"><text x="156" y="148">0x8014</text></g><rect x="151" y="41" width="70" height="110" fill="none" stroke="none" pointer-events="none"/><rect x="151" y="41" width="70" height="110" fill="none" stroke="none" pointer-events="none"/><rect x="176" y="41" width="30" height="60" fill="#e6e6e6" stroke="#999999" pointer-events="none"/><rect x="151" y="131" width="70" height="20" fill="none" stroke="none" transform="rotate(90,186,141)" pointer-events="none"/><g fill="#000000" font-family="Courier New" font-weight="bold" text-anchor="middle" font-size="18px" transform="rotate(90,186,141)"><text x="186" y="148">0x8015</text></g><rect x="181" y="41" width="100" height="110" fill="none" stroke="none" pointer-events="none"/><rect x="181" y="41" width="100" height="110" fill="none" stroke="none" pointer-events="none"/><rect x="206" y="41" width="30" height="60" fill="#e6e6e6" stroke="#999999" pointer-events="none"/><rect x="181" y="131" width="70" height="20" fill="none" stroke="none" transform="rotate(90,216,141)" pointer-events="none"/><g fill="#000000" font-family="Courier New" font-weight="bold" text-anchor="middle" font-size="18px" transform="rotate(90,216,141)"><text x="216" y="148">0x8016</text></g><rect x="211" y="41" width="70" height="110" fill="none" stroke="none" pointer-events="none"/><rect x="211" y="41" width="70" height="110" fill="none" stroke="none" pointer-events="none"/><rect x="236" y="41" width="30" height="60" fill="#e6e6e6" stroke="#999999" pointer-events="none"/><rect x="211" y="131" width="70" height="20" fill="none" stroke="none" transform="rotate(90,246,141)" pointer-events="none"/><g fill="#000000" font-family="Courier New" font-weight="bold" text-anchor="middle" font-size="18px" transform="rotate(90,246,141)"><text x="246" y="148">0x8017</text></g><rect x="146" y="41" width="120" height="60" fill="#ffffff" stroke="#000000" pointer-events="none"/><rect x="156" y="41" width="100" height="60" fill="none" stroke="none" pointer-events="none"/><g fill="#000000" font-family="Courier New" font-weight="bold" text-anchor="middle" font-size="24px"><text x="206" y="81">75</text></g><rect x="266" y="41" width="30" height="60" fill="#e6e6e6" stroke="#999999" pointer-events="none"/><rect x="241" y="131" width="70" height="20" fill="none" stroke="none" transform="rotate(90,276,141)" pointer-events="none"/><g fill="#000000" font-family="Courier New" font-weight="bold" text-anchor="middle" font-size="18px" transform="rotate(90,276,141)"><text x="276" y="148">0x8018</text></g><rect x="271" y="41" width="70" height="110" fill="none" stroke="none" pointer-events="none"/><rect x="271" y="41" width="70" height="110" fill="none" stroke="none" pointer-events="none"/><rect x="296" y="41" width="30" height="60" fill="#e6e6e6" stroke="#999999" pointer-events="none"/><rect x="271" y="131" width="70" height="20" fill="none" stroke="none" transform="rotate(90,306,141)" pointer-events="none"/><g fill="#000000" font-family="Courier New" font-weight="bold" text-anchor="middle" font-size="18px" transform="rotate(90,306,141)"><text x="306" y="148">0x8019</text></g><rect x="301" y="41" width="100" height="110" fill="none" stroke="none" pointer-events="none"/><rect x="301" y="41" width="100" height="110" fill="none" stroke="none" pointer-events="none"/><rect x="326" y="41" width="30" height="60" fill="#e6e6e6" stroke="#999999" pointer-events="none"/><rect x="301" y="131" width="70" height="20" fill="none" stroke="none" transform="rotate(90,336,141)" pointer-events="none"/><g fill="#000000" font-family="Courier New" font-weight="bold" text-anchor="middle" font-size="18px" transform="rotate(90,336,141)"><text x="336" y="148">0x801a</text></g><rect x="331" y="41" width="70" height="110" fill="none" stroke="none" pointer-events="none"/><rect x="331" y="41" width="70" height="110" fill="none" stroke="none" pointer-events="none"/><rect x="356" y="41" width="30" height="60" fill="#e6e6e6" stroke="#999999" pointer-events="none"/><rect x="331" y="131" width="70" height="20" fill="none" stroke="none" transform="rotate(90,366,141)" pointer-events="none"/><g fill="#000000" font-family="Courier New" font-weight="bold" text-anchor="middle" font-size="18px" transform="rotate(90,366,141)"><text x="366" y="148">0x801b</text></g><rect x="361" y="41" width="160" height="110" fill="none" stroke="none" pointer-events="none"/><rect x="361" y="41" width="70" height="110" fill="none" stroke="none" pointer-events="none"/><rect x="361" y="41" width="70" height="110" fill="none" stroke="none" pointer-events="none"/><rect x="361" y="41" width="70" height="110" fill="none" stroke="none" pointer-events="none"/><rect x="386" y="41" width="30" height="60" fill="#e6e6e6" stroke="#999999" pointer-events="none"/><rect x="361" y="131" width="70" height="20" fill="none" stroke="none" transform="rotate(90,396,141)" pointer-events="none"/><g fill="#000000" font-family="Courier New" font-weight="bold" text-anchor="middle" font-size="18px" transform="rotate(90,396,141)"><text x="396" y="148">0x801c</text></g><rect x="391" y="41" width="70" height="110" fill="none" stroke="none" pointer-events="none"/><rect x="391" y="41" width="70" height="110" fill="none" stroke="none" pointer-events="none"/><rect x="416" y="41" width="30" height="60" fill="#e6e6e6" stroke="#999999" pointer-events="none"/><rect x="391" y="131" width="70" height="20" fill="none" stroke="none" transform="rotate(90,426,141)" pointer-events="none"/><g fill="#000000" font-family="Courier New" font-weight="bold" text-anchor="middle" font-size="18px" transform="rotate(90,426,141)"><text x="426" y="148">0x801d</text></g><rect x="421" y="41" width="100" height="110" fill="none" stroke="none" pointer-events="none"/><rect x="421" y="41" width="100" height="110" fill="none" stroke="none" pointer-events="none"/><rect x="446" y="41" width="30" height="60" fill="#e6e6e6" stroke="#999999" pointer-events="none"/><rect x="421" y="131" width="70" height="20" fill="none" stroke="none" transform="rotate(90,456,141)" pointer-events="none"/><g fill="#000000" font-family="Courier New" font-weight="bold" text-anchor="middle" font-size="18px" transform="rotate(90,456,141)"><text x="456" y="148">0x801e</text></g><rect x="451" y="41" width="70" height="110" fill="none" stroke="none" pointer-events="none"/><rect x="451" y="41" width="70" height="110" fill="none" stroke="none" pointer-events="none"/><rect x="476" y="41" width="30" height="60" fill="#e6e6e6" stroke="#999999" pointer-events="none"/><rect x="451" y="131" width="70" height="20" fill="none" stroke="none" transform="rotate(90,486,141)" pointer-events="none"/><g fill="#000000" font-family="Courier New" font-weight="bold" text-anchor="middle" font-size="18px" transform="rotate(90,486,141)"><text x="486" y="148">0x801f</text></g><rect x="506" y="41" width="30" height="60" fill="#e6e6e6" stroke="#999999" pointer-events="none"/><rect x="481" y="131" width="70" height="20" fill="none" stroke="none" transform="rotate(90,516,141)" pointer-events="none"/><g fill="#000000" font-family="Courier New" font-weight="bold" text-anchor="middle" font-size="18px" transform="rotate(90,516,141)"><text x="516" y="148">0x8020</text></g><rect x="511" y="41" width="70" height="110" fill="none" stroke="none" pointer-events="none"/><rect x="511" y="41" width="70" height="110" fill="none" stroke="none" pointer-events="none"/><rect x="536" y="41" width="30" height="60" fill="#e6e6e6" stroke="#999999" pointer-events="none"/><rect x="511" y="131" width="70" height="20" fill="none" stroke="none" transform="rotate(90,546,141)" pointer-events="none"/><g fill="#000000" font-family="Courier New" font-weight="bold" text-anchor="middle" font-size="18px" transform="rotate(90,546,141)"><text x="546" y="148">0x8021</text></g><rect x="541" y="41" width="100" height="110" fill="none" stroke="none" pointer-events="none"/><rect x="541" y="41" width="100" height="110" fill="none" stroke="none" pointer-events="none"/><rect x="566" y="41" width="30" height="60" fill="#e6e6e6" stroke="#999999" pointer-events="none"/><rect x="541" y="131" width="70" height="20" fill="none" stroke="none" transform="rotate(90,576,141)" pointer-events="none"/><g fill="#000000" font-family="Courier New" font-weight="bold" text-anchor="middle" font-size="18px" transform="rotate(90,576,141)"><text x="576" y="148">0x8022</text></g><rect x="571" y="41" width="70" height="110" fill="none" stroke="none" pointer-events="none"/><rect x="571" y="41" width="70" height="110" fill="none" stroke="none" pointer-events="none"/><rect x="596" y="41" width="30" height="60" fill="#e6e6e6" stroke="#999999" pointer-events="none"/><rect x="571" y="131" width="70" height="20" fill="none" stroke="none" transform="rotate(90,606,141)" pointer-events="none"/><g fill="#000000" font-family="Courier New" font-weight="bold" text-anchor="middle" font-size="18px" transform="rotate(90,606,141)"><text x="606" y="148">0x8023</text></g><rect x="506" y="41" width="120" height="60" fill="#ffffff" stroke="#000000" pointer-events="none"/><rect x="516" y="41" width="100" height="60" fill="none" stroke="none" pointer-events="none"/><g fill="#000000" font-family="Courier New" font-weight="bold" text-anchor="middle" font-size="24px"><text x="566" y="81">0x8014</text></g><rect x="601" y="41" width="160" height="110" fill="none" stroke="none" pointer-events="none"/><rect x="601" y="41" width="70" height="110" fill="none" stroke="none" pointer-events="none"/><rect x="601" y="41" width="70" height="110" fill="none" stroke="none" pointer-events="none"/><rect x="601" y="41" width="70" height="110" fill="none" stroke="none" pointer-events="none"/><rect x="626" y="41" width="30" height="60" fill="#e6e6e6" stroke="#999999" pointer-events="none"/><rect x="601" y="131" width="70" height="20" fill="none" stroke="none" transform="rotate(90,636,141)" pointer-events="none"/><g fill="#000000" font-family="Courier New" font-weight="bold" text-anchor="middle" font-size="18px" transform="rotate(90,636,141)"><text x="636" y="148">0x8024</text></g><rect x="631" y="41" width="70" height="110" fill="none" stroke="none" pointer-events="none"/><rect x="631" y="41" width="70" height="110" fill="none" stroke="none" pointer-events="none"/><rect x="656" y="41" width="30" height="60" fill="#e6e6e6" stroke="#999999" pointer-events="none"/><rect x="631" y="131" width="70" height="20" fill="none" stroke="none" transform="rotate(90,666,141)" pointer-events="none"/><g fill="#000000" font-family="Courier New" font-weight="bold" text-anchor="middle" font-size="18px" transform="rotate(90,666,141)"><text x="666" y="148">0x8025</text></g><rect x="661" y="41" width="100" height="110" fill="none" stroke="none" pointer-events="none"/><rect x="661" y="41" width="100" height="110" fill="none" stroke="none" pointer-events="none"/><rect x="686" y="41" width="30" height="60" fill="#e6e6e6" stroke="#999999" pointer-events="none"/><rect x="661" y="131" width="70" height="20" fill="none" stroke="none" transform="rotate(90,696,141)" pointer-events="none"/><g fill="#000000" font-family="Courier New" font-weight="bold" text-anchor="middle" font-size="18px" transform="rotate(90,696,141)"><text x="696" y="148">0x8026</text></g><rect x="691" y="41" width="70" height="110" fill="none" stroke="none" pointer-events="none"/><rect x="691" y="41" width="70" height="110" fill="none" stroke="none" pointer-events="none"/><rect x="716" y="41" width="30" height="60" fill="#e6e6e6" stroke="#999999" pointer-events="none"/><rect x="691" y="131" width="70" height="20" fill="none" stroke="none" transform="rotate(90,726,141)" pointer-events="none"/><g fill="#000000" font-family="Courier New" font-weight="bold" text-anchor="middle" font-size="18px" transform="rotate(90,726,141)"><text x="726" y="148">0x8027</text></g><rect x="146" y="1" width="30" height="40" fill="none" stroke="none" pointer-events="none"/><g fill="#000000" font-family="Courier New" font-weight="bold" text-anchor="middle" font-size="24px"><text x="161" y="31">x</text></g><rect x="506" y="1" width="70" height="40" fill="none" stroke="none" pointer-events="none"/><g fill="#000000" font-family="Courier New" font-weight="bold" text-anchor="middle" font-size="24px"><text x="541" y="31">xPtr</text></g></g></svg>