<svg xmlns="http://www.w3.org/2000/svg" xmlns:xlink="http://www.w3.org/1999/xlink" width="313px" height="383px" version="1.1"><defs/><g transform="translate(0.5,0.5)"><rect x="71" y="81" width="80" height="60" fill="#ffffff" stroke="#000000" pointer-events="none"/><rect x="151" y="81" width="80" height="60" fill="#ffffff" stroke="#000000" pointer-events="none"/><rect x="231" y="81" width="80" height="60" fill="#ffffff" stroke="#000000" pointer-events="none"/><rect x="71" y="141" width="80" height="60" fill="#ffffff" stroke="#000000" pointer-events="none"/><rect x="151" y="141" width="80" height="60" fill="#ffffff" stroke="#000000" pointer-events="none"/><rect x="231" y="141" width="80" height="60" fill="#ffffff" stroke="#000000" pointer-events="none"/><rect x="71" y="201" width="80" height="60" fill="#ffffff" stroke="#000000" pointer-events="none"/><rect x="151" y="201" width="80" height="60" fill="#ffffff" stroke="#000000" pointer-events="none"/><rect x="231" y="201" width="80" height="60" fill="#ffffff" stroke="#000000" pointer-events="none"/><rect x="1" y="1" width="120" height="50" fill="none" stroke="none" pointer-events="none"/><g fill="#000000" font-family="Courier New" font-weight="bold" text-anchor="middle" font-size="36px"><text x="61" y="42">votes</text></g><rect x="41" y="94" width="30" height="35" fill="none" stroke="none" pointer-events="none"/><g fill="#000000" font-family="Courier New" font-weight="bold" text-anchor="middle" font-size="24px"><text x="56" y="122">0</text></g><rect x="96" y="46" width="30" height="35" fill="none" stroke="none" pointer-events="none"/><g fill="#000000" font-family="Courier New" font-weight="bold" text-anchor="middle" font-size="24px"><text x="111" y="74">0</text></g><rect x="41" y="214" width="30" height="35" fill="none" stroke="none" pointer-events="none"/><g fill="#000000" font-family="Courier New" font-weight="bold" text-anchor="middle" font-size="24px"><text x="56" y="242">2</text></g><rect x="41" y="154" width="30" height="35" fill="none" stroke="none" pointer-events="none"/><g fill="#000000" font-family="Courier New" font-weight="bold" text-anchor="middle" font-size="24px"><text x="56" y="182">1</text></g><rect x="71" y="261" width="80" height="60" fill="#ffffff" stroke="#000000" pointer-events="none"/><rect x="151" y="261" width="80" height="60" fill="#ffffff" stroke="#000000" pointer-events="none"/><rect x="231" y="261" width="80" height="60" fill="#ffffff" stroke="#000000" pointer-events="none"/><rect x="71" y="321" width="80" height="60" fill="#ffffff" stroke="#000000" pointer-events="none"/><rect x="151" y="321" width="80" height="60" fill="#ffffff" stroke="#000000" pointer-events="none"/><rect x="231" y="321" width="80" height="60" fill="#ffffff" stroke="#000000" pointer-events="none"/><rect x="41" y="274" width="30" height="35" fill="none" stroke="none" pointer-events="none"/><g fill="#000000" font-family="Courier New" font-weight="bold" text-anchor="middle" font-size="24px"><text x="56" y="302">3</text></g><rect x="41" y="334" width="30" height="35" fill="none" stroke="none" pointer-events="none"/><g fill="#000000" font-family="Courier New" font-weight="bold" text-anchor="middle" font-size="24px"><text x="56" y="362">4</text></g><rect x="176" y="46" width="30" height="35" fill="none" stroke="none" pointer-events="none"/><g fill="#000000" font-family="Courier New" font-weight="bold" text-anchor="middle" font-size="24px"><text x="191" y="74">1</text></g><rect x="256" y="46" width="30" height="35" fill="none" stroke="none" pointer-events="none"/><g fill="#000000" font-family="Courier New" font-weight="bold" text-anchor="middle" font-size="24px"><text x="271" y="74">2</text></g><path d="M 31 51 L 31 86 Q 31 96 41 96 L 61 96" fill="none" stroke="#000000" stroke-width="3" stroke-miterlimit="10" pointer-events="none"/><path d="M 68 96 L 59 101 L 61 96 L 59 92 Z" fill="#000000" stroke="#000000" stroke-width="3" stroke-miterlimit="10" pointer-events="none"/></g></svg>