<svg xmlns="http://www.w3.org/2000/svg" xmlns:xlink="http://www.w3.org/1999/xlink" width="963px" height="195px" version="1.1"><defs/><g transform="translate(0.5,0.5)"><rect x="1" y="1" width="960" height="190" fill="none" stroke="none" pointer-events="none"/><rect x="931" y="61" width="30" height="60" fill="#e6e6e6" stroke="#999999" pointer-events="none"/><rect x="901" y="61" width="30" height="60" fill="#e6e6e6" stroke="#999999" pointer-events="none"/><rect x="871" y="61" width="30" height="60" fill="#e6e6e6" stroke="#999999" pointer-events="none"/><rect x="841" y="61" width="30" height="60" fill="#e6e6e6" stroke="#999999" pointer-events="none"/><rect x="811" y="61" width="30" height="60" fill="#e6e6e6" stroke="#999999" pointer-events="none"/><rect x="781" y="61" width="30" height="60" fill="#e6e6e6" stroke="#999999" pointer-events="none"/><rect x="91" y="61" width="30" height="60" fill="#e6e6e6" stroke="#999999" pointer-events="none"/><rect x="61" y="61" width="30" height="60" fill="#e6e6e6" stroke="#999999" pointer-events="none"/><rect x="31" y="61" width="30" height="60" fill="#e6e6e6" stroke="#999999" pointer-events="none"/><rect x="1" y="61" width="30" height="60" fill="#e6e6e6" stroke="#999999" pointer-events="none"/><rect x="121" y="61" width="30" height="60" fill="#e6e6e6" stroke="#999999" pointer-events="none"/><rect x="151" y="61" width="30" height="60" fill="#e6e6e6" stroke="#999999" pointer-events="none"/><rect x="186" y="1" width="110" height="40" fill="none" stroke="none" pointer-events="none"/><g fill="#000000" font-family="Courier New" font-weight="bold" text-anchor="middle" font-size="36px"><text x="241" y="37">tests</text></g><rect x="181" y="61" width="600" height="60" fill="none" stroke="none" pointer-events="none"/><rect x="181" y="61" width="120" height="60" fill="#ffffff" stroke="#000000" pointer-events="none"/><rect x="301" y="61" width="120" height="60" fill="#ffffff" stroke="#000000" pointer-events="none"/><rect x="421" y="61" width="120" height="60" fill="#ffffff" stroke="#000000" pointer-events="none"/><rect x="541" y="61" width="120" height="60" fill="#ffffff" stroke="#000000" pointer-events="none"/><rect x="661" y="61" width="120" height="60" fill="#ffffff" stroke="#000000" pointer-events="none"/><rect x="201" y="151" width="80" height="40" fill="none" stroke="none" pointer-events="none"/><g fill="#000000" font-family="Verdana" text-anchor="middle" font-size="18px"><text x="241" y="167">First</text><text x="241" y="189">Element</text></g><rect x="321" y="151" width="80" height="40" fill="none" stroke="none" pointer-events="none"/><g fill="#000000" font-family="Verdana" text-anchor="middle" font-size="18px"><text x="361" y="167">Second</text><text x="361" y="189">Element</text></g><rect x="441" y="151" width="80" height="40" fill="none" stroke="none" pointer-events="none"/><g fill="#000000" font-family="Verdana" text-anchor="middle" font-size="18px"><text x="481" y="167">Third</text><text x="481" y="189">Element</text></g><rect x="561" y="151" width="80" height="40" fill="none" stroke="none" pointer-events="none"/><g fill="#000000" font-family="Verdana" text-anchor="middle" font-size="18px"><text x="601" y="167">Fourth</text><text x="601" y="189">Element</text></g><rect x="681" y="151" width="80" height="40" fill="none" stroke="none" pointer-events="none"/><g fill="#000000" font-family="Verdana" text-anchor="middle" font-size="18px"><text x="721" y="167">Fifth</text><text x="721" y="189">Element</text></g><path d="M 241 151 L 241 125" fill="none" stroke="#000000" stroke-width="2" stroke-miterlimit="10" pointer-events="none"/><path d="M 245 131 L 241 123 L 237 131" fill="none" stroke="#000000" stroke-width="2" stroke-miterlimit="10" pointer-events="none"/><path d="M 361 151 L 361 125" fill="none" stroke="#000000" stroke-width="2" stroke-miterlimit="10" pointer-events="none"/><path d="M 365 131 L 361 123 L 357 131" fill="none" stroke="#000000" stroke-width="2" stroke-miterlimit="10" pointer-events="none"/><path d="M 481 151 L 481 125" fill="none" stroke="#000000" stroke-width="2" stroke-miterlimit="10" pointer-events="none"/><path d="M 485 131 L 481 123 L 477 131" fill="none" stroke="#000000" stroke-width="2" stroke-miterlimit="10" pointer-events="none"/><path d="M 601 151 L 601 125" fill="none" stroke="#000000" stroke-width="2" stroke-miterlimit="10" pointer-events="none"/><path d="M 605 131 L 601 123 L 597 131" fill="none" stroke="#000000" stroke-width="2" stroke-miterlimit="10" pointer-events="none"/><path d="M 721 151 L 721 125" fill="none" stroke="#000000" stroke-width="2" stroke-miterlimit="10" pointer-events="none"/><path d="M 725 131 L 721 123 L 717 131" fill="none" stroke="#000000" stroke-width="2" stroke-miterlimit="10" pointer-events="none"/><path d="M 186 21 L 171 21 Q 161 21 161 26 L 161 29 Q 161 31 161 41 L 161 81 Q 161 91 166 91 L 171 91" fill="none" stroke="#000000" stroke-width="3" stroke-miterlimit="10" pointer-events="none"/><path d="M 178 91 L 169 96 L 171 91 L 169 87 Z" fill="#000000" stroke="#000000" stroke-width="3" stroke-miterlimit="10" pointer-events="none"/></g></svg>